<svg width="44" height="44" viewBox="0 0 44 44" fill="none" xmlns="http://www.w3.org/2000/svg">
<path opacity="0.55" d="M21.9999 44C34.1502 44 43.9999 34.1503 43.9999 22C43.9999 9.84981 34.1502 9.24138e-05 21.9999 9.3476e-05C9.84969 9.45382e-05 -3.35031e-05 9.84982 -3.24409e-05 22C-3.13787e-05 34.1503 9.84959 44 21.9999 44ZM11.4042 20.9483C11.4408 20.9077 11.4794 20.869 11.52 20.8324L27.2343 6.68958C27.8907 6.12176 28.883 6.19339 29.4509 6.84971C30.003 7.48779 29.9526 8.44787 29.3369 9.02472L14.9206 22L29.3369 34.9753C29.9703 35.5686 30.0027 36.563 29.4094 37.1964C28.8325 37.8121 27.8723 37.8625 27.2343 37.3104L11.52 23.1676C10.8752 22.5868 10.8234 21.5931 11.4042 20.9483Z" fill="#A8A8A8"/>
</svg>
