<svg width="44" height="44" viewBox="0 0 44 44" fill="none" xmlns="http://www.w3.org/2000/svg">
<path opacity="0.55" d="M22 0C9.84972 0 0 9.84972 0 22C0 34.1502 9.84972 43.9999 22 43.9999C34.1502 43.9999 43.9999 34.1502 43.9999 22C43.9999 9.84972 34.1503 0 22 0ZM32.5957 23.0517C32.5591 23.0923 32.5204 23.131 32.4798 23.1676L16.7655 37.3104C16.1092 37.8782 15.1168 37.8066 14.549 37.1503C13.9969 36.5122 14.0473 35.5521 14.663 34.9753L29.0793 22L14.663 9.02472C14.0296 8.43138 13.9972 7.43696 14.5905 6.80358C15.1674 6.18786 16.1275 6.1375 16.7655 6.68959L32.4798 20.8324C33.1247 21.4132 33.1765 22.4069 32.5957 23.0517Z" fill="#A8A8A8"/>
</svg>
