<svg width="259" height="25" viewBox="0 0 259 25" fill="none" xmlns="http://www.w3.org/2000/svg">
<path d="M3.9 17.55C4.08333 17.5667 4.29167 17.5833 4.525 17.6C4.775 17.6 5.06667 17.6 5.4 17.6C7.35 17.6 8.79167 17.1083 9.725 16.125C10.675 15.1417 11.15 13.7833 11.15 12.05C11.15 10.2333 10.7 8.85833 9.8 7.925C8.9 6.99167 7.475 6.525 5.525 6.525C5.25833 6.525 4.98333 6.53333 4.7 6.55C4.41667 6.55 4.15 6.56667 3.9 6.6V17.55ZM15.175 12.05C15.175 13.55 14.9417 14.8583 14.475 15.975C14.0083 17.0917 13.3417 18.0167 12.475 18.75C11.625 19.4833 10.5833 20.0333 9.35 20.4C8.11667 20.7667 6.73333 20.95 5.2 20.95C4.5 20.95 3.68333 20.9167 2.75 20.85C1.81667 20.8 0.9 20.6833 0 20.5V3.625C0.9 3.45833 1.83333 3.35 2.8 3.3C3.78333 3.23333 4.625 3.2 5.325 3.2C6.80833 3.2 8.15 3.36667 9.35 3.7C10.5667 4.03333 11.6083 4.55833 12.475 5.275C13.3417 5.99167 14.0083 6.90833 14.475 8.025C14.9417 9.14167 15.175 10.4833 15.175 12.05Z" fill="white"/>
<path d="M17.4326 20.725V3.4H29.1326V6.675H21.3326V10.075H28.2576V13.275H21.3326V17.45H29.7076V20.725H17.4326Z" fill="white"/>
<path d="M37.0123 20.725C36.329 19.275 35.654 17.7667 34.9873 16.2C34.3206 14.6333 33.6873 13.0833 33.0873 11.55C32.4873 10.0167 31.929 8.55 31.4123 7.15C30.9123 5.75 30.479 4.5 30.1123 3.4H34.4123C34.7456 4.4 35.104 5.48333 35.4873 6.65C35.8873 7.8 36.2873 8.95 36.6873 10.1C37.104 11.25 37.504 12.35 37.8873 13.4C38.2706 14.45 38.629 15.3583 38.9623 16.125C39.279 15.3583 39.629 14.45 40.0123 13.4C40.4123 12.35 40.8123 11.25 41.2123 10.1C41.629 8.95 42.029 7.8 42.4123 6.65C42.8123 5.48333 43.179 4.4 43.5123 3.4H47.6623C47.279 4.5 46.8373 5.75 46.3373 7.15C45.8373 8.55 45.2873 10.0167 44.6873 11.55C44.0873 13.0833 43.454 14.6333 42.7873 16.2C42.1206 17.7667 41.4456 19.275 40.7623 20.725H37.0123Z" fill="white"/>
<path d="M48.9043 20.725V3.4H60.6043V6.675H52.8043V10.075H59.7293V13.275H52.8043V17.45H61.1793V20.725H48.9043Z" fill="white"/>
<path d="M74.6404 17.375V20.725H63.0654V3.4H66.9654V17.375H74.6404Z" fill="white"/>
<path d="M78.9391 12.05C78.9391 12.9 79.0391 13.6667 79.2391 14.35C79.4557 15.0333 79.7557 15.625 80.1391 16.125C80.5391 16.6083 81.0224 16.9833 81.5891 17.25C82.1557 17.5167 82.8057 17.65 83.5391 17.65C84.2557 17.65 84.8974 17.5167 85.4641 17.25C86.0474 16.9833 86.5307 16.6083 86.9141 16.125C87.3141 15.625 87.6141 15.0333 87.8141 14.35C88.0307 13.6667 88.1391 12.9 88.1391 12.05C88.1391 11.2 88.0307 10.4333 87.8141 9.75C87.6141 9.05 87.3141 8.45833 86.9141 7.975C86.5307 7.475 86.0474 7.09167 85.4641 6.825C84.8974 6.55833 84.2557 6.425 83.5391 6.425C82.8057 6.425 82.1557 6.56667 81.5891 6.85C81.0224 7.11667 80.5391 7.5 80.1391 8C79.7557 8.48333 79.4557 9.075 79.2391 9.775C79.0391 10.4583 78.9391 11.2167 78.9391 12.05ZM92.1641 12.05C92.1641 13.5333 91.9391 14.8417 91.4891 15.975C91.0557 17.0917 90.4557 18.0333 89.6891 18.8C88.9224 19.55 88.0057 20.1167 86.9391 20.5C85.8891 20.8833 84.7557 21.075 83.5391 21.075C82.3557 21.075 81.2391 20.8833 80.1891 20.5C79.1391 20.1167 78.2224 19.55 77.4391 18.8C76.6557 18.0333 76.0391 17.0917 75.5891 15.975C75.1391 14.8417 74.9141 13.5333 74.9141 12.05C74.9141 10.5667 75.1474 9.26667 75.6141 8.15C76.0807 7.01667 76.7057 6.06667 77.4891 5.3C78.2891 4.53333 79.2057 3.95833 80.2391 3.575C81.2891 3.19167 82.3891 3 83.5391 3C84.7224 3 85.8391 3.19167 86.8891 3.575C87.9391 3.95833 88.8557 4.53333 89.6391 5.3C90.4224 6.06667 91.0391 7.01667 91.4891 8.15C91.9391 9.26667 92.1641 10.5667 92.1641 12.05Z" fill="white"/>
<path d="M99.615 3.2C102.198 3.2 104.182 3.65833 105.565 4.575C106.948 5.475 107.64 6.95833 107.64 9.025C107.64 11.1083 106.94 12.6167 105.54 13.55C104.14 14.4667 102.14 14.925 99.54 14.925H98.315V20.725H94.415V3.65C95.265 3.48333 96.165 3.36667 97.115 3.3C98.065 3.23333 98.8984 3.2 99.615 3.2ZM99.865 6.525C99.5817 6.525 99.2984 6.53333 99.015 6.55C98.7484 6.56667 98.515 6.58333 98.315 6.6V11.6H99.54C100.89 11.6 101.907 11.4167 102.59 11.05C103.273 10.6833 103.615 10 103.615 9C103.615 8.51667 103.523 8.11667 103.34 7.8C103.173 7.48333 102.923 7.23333 102.59 7.05C102.273 6.85 101.882 6.71667 101.415 6.65C100.948 6.56667 100.432 6.525 99.865 6.525Z" fill="white"/>
<path d="M109.504 20.725V3.4H121.204V6.675H113.404V10.075H120.329V13.275H113.404V17.45H121.779V20.725H109.504Z" fill="white"/>
<path d="M127.565 17.55C127.748 17.5667 127.957 17.5833 128.19 17.6C128.44 17.6 128.732 17.6 129.065 17.6C131.015 17.6 132.457 17.1083 133.39 16.125C134.34 15.1417 134.815 13.7833 134.815 12.05C134.815 10.2333 134.365 8.85833 133.465 7.925C132.565 6.99167 131.14 6.525 129.19 6.525C128.923 6.525 128.648 6.53333 128.365 6.55C128.082 6.55 127.815 6.56667 127.565 6.6V17.55ZM138.84 12.05C138.84 13.55 138.607 14.8583 138.14 15.975C137.673 17.0917 137.007 18.0167 136.14 18.75C135.29 19.4833 134.248 20.0333 133.015 20.4C131.782 20.7667 130.398 20.95 128.865 20.95C128.165 20.95 127.348 20.9167 126.415 20.85C125.482 20.8 124.565 20.6833 123.665 20.5V3.625C124.565 3.45833 125.498 3.35 126.465 3.3C127.448 3.23333 128.29 3.2 128.99 3.2C130.473 3.2 131.815 3.36667 133.015 3.7C134.232 4.03333 135.273 4.55833 136.14 5.275C137.007 5.99167 137.673 6.90833 138.14 8.025C138.607 9.14167 138.84 10.4833 138.84 12.05Z" fill="white"/>
<path d="M151.879 20.95C150.929 20.95 149.979 20.9167 149.029 20.85C148.095 20.8 147.12 20.6667 146.104 20.45V3.65C146.904 3.5 147.779 3.39167 148.729 3.325C149.679 3.24167 150.562 3.2 151.379 3.2C152.479 3.2 153.487 3.28333 154.404 3.45C155.337 3.6 156.137 3.86667 156.804 4.25C157.47 4.63333 157.987 5.14167 158.354 5.775C158.737 6.39167 158.929 7.15833 158.929 8.075C158.929 9.45833 158.262 10.55 156.929 11.35C158.029 11.7667 158.779 12.3333 159.179 13.05C159.579 13.7667 159.779 14.575 159.779 15.475C159.779 17.2917 159.112 18.6583 157.779 19.575C156.462 20.4917 154.495 20.95 151.879 20.95ZM149.904 13.175V17.65C150.187 17.6833 150.495 17.7083 150.829 17.725C151.162 17.7417 151.529 17.75 151.929 17.75C153.095 17.75 154.037 17.5833 154.754 17.25C155.47 16.9167 155.829 16.3 155.829 15.4C155.829 14.6 155.529 14.0333 154.929 13.7C154.329 13.35 153.47 13.175 152.354 13.175H149.904ZM149.904 10.2H151.804C153.004 10.2 153.862 10.05 154.379 9.75C154.895 9.43333 155.154 8.93333 155.154 8.25C155.154 7.55 154.887 7.05833 154.354 6.775C153.82 6.49167 153.037 6.35 152.004 6.35C151.67 6.35 151.312 6.35833 150.929 6.375C150.545 6.375 150.204 6.39167 149.904 6.425V10.2Z" fill="white"/>
<path d="M167.396 10.525C168.096 9.34167 168.763 8.15833 169.396 6.975C170.029 5.79167 170.613 4.6 171.146 3.4H175.446C174.496 5.26667 173.513 7.075 172.496 8.825C171.479 10.575 170.404 12.3333 169.271 14.1V20.725H165.371V14.15C164.238 12.3833 163.154 10.6167 162.121 8.85C161.104 7.08333 160.121 5.26667 159.171 3.4H163.696C164.229 4.6 164.804 5.79167 165.421 6.975C166.038 8.15833 166.696 9.34167 167.396 10.525Z" fill="white"/>
<path d="M186.775 20.95C185.825 20.95 184.875 20.9167 183.925 20.85C182.992 20.8 182.017 20.6667 181 20.45V3.65C181.8 3.5 182.675 3.39167 183.625 3.325C184.575 3.24167 185.458 3.2 186.275 3.2C187.375 3.2 188.383 3.28333 189.3 3.45C190.233 3.6 191.033 3.86667 191.7 4.25C192.367 4.63333 192.883 5.14167 193.25 5.775C193.633 6.39167 193.825 7.15833 193.825 8.075C193.825 9.45833 193.158 10.55 191.825 11.35C192.925 11.7667 193.675 12.3333 194.075 13.05C194.475 13.7667 194.675 14.575 194.675 15.475C194.675 17.2917 194.008 18.6583 192.675 19.575C191.358 20.4917 189.392 20.95 186.775 20.95ZM184.8 13.175V17.65C185.083 17.6833 185.392 17.7083 185.725 17.725C186.058 17.7417 186.425 17.75 186.825 17.75C187.992 17.75 188.933 17.5833 189.65 17.25C190.367 16.9167 190.725 16.3 190.725 15.4C190.725 14.6 190.425 14.0333 189.825 13.7C189.225 13.35 188.367 13.175 187.25 13.175H184.8ZM184.8 10.2H186.7C187.9 10.2 188.758 10.05 189.275 9.75C189.792 9.43333 190.05 8.93333 190.05 8.25C190.05 7.55 189.783 7.05833 189.25 6.775C188.717 6.49167 187.933 6.35 186.9 6.35C186.567 6.35 186.208 6.35833 185.825 6.375C185.442 6.375 185.1 6.39167 184.8 6.425V10.2Z" fill="#D82222"/>
<path d="M200.072 12.05C200.072 12.9 200.172 13.6667 200.372 14.35C200.589 15.0333 200.889 15.625 201.272 16.125C201.672 16.6083 202.155 16.9833 202.722 17.25C203.289 17.5167 203.939 17.65 204.672 17.65C205.389 17.65 206.03 17.5167 206.597 17.25C207.18 16.9833 207.664 16.6083 208.047 16.125C208.447 15.625 208.747 15.0333 208.947 14.35C209.164 13.6667 209.272 12.9 209.272 12.05C209.272 11.2 209.164 10.4333 208.947 9.75C208.747 9.05 208.447 8.45833 208.047 7.975C207.664 7.475 207.18 7.09167 206.597 6.825C206.03 6.55833 205.389 6.425 204.672 6.425C203.939 6.425 203.289 6.56667 202.722 6.85C202.155 7.11667 201.672 7.5 201.272 8C200.889 8.48333 200.589 9.075 200.372 9.775C200.172 10.4583 200.072 11.2167 200.072 12.05ZM213.297 12.05C213.297 13.5333 213.072 14.8417 212.622 15.975C212.189 17.0917 211.589 18.0333 210.822 18.8C210.055 19.55 209.139 20.1167 208.072 20.5C207.022 20.8833 205.889 21.075 204.672 21.075C203.489 21.075 202.372 20.8833 201.322 20.5C200.272 20.1167 199.355 19.55 198.572 18.8C197.789 18.0333 197.172 17.0917 196.722 15.975C196.272 14.8417 196.047 13.5333 196.047 12.05C196.047 10.5667 196.28 9.26667 196.747 8.15C197.214 7.01667 197.839 6.06667 198.622 5.3C199.422 4.53333 200.339 3.95833 201.372 3.575C202.422 3.19167 203.522 3 204.672 3C205.855 3 206.972 3.19167 208.022 3.575C209.072 3.95833 209.989 4.53333 210.772 5.3C211.555 6.06667 212.172 7.01667 212.622 8.15C213.072 9.26667 213.297 10.5667 213.297 12.05Z" fill="#D82222"/>
<path d="M214 0H217.775L226.175 24.2H222.35L214 0Z" fill="white"/>
<path d="M231.556 19.8C230.606 19.8 229.656 19.7667 228.706 19.7C227.773 19.65 226.798 19.5167 225.781 19.3V2.5C226.581 2.35 227.456 2.24167 228.406 2.175C229.356 2.09167 230.24 2.05 231.056 2.05C232.156 2.05 233.165 2.13333 234.081 2.3C235.015 2.45 235.815 2.71667 236.481 3.1C237.148 3.48333 237.665 3.99167 238.031 4.625C238.415 5.24167 238.606 6.00833 238.606 6.925C238.606 8.30833 237.94 9.4 236.606 10.2C237.706 10.6167 238.456 11.1833 238.856 11.9C239.256 12.6167 239.456 13.425 239.456 14.325C239.456 16.1417 238.79 17.5083 237.456 18.425C236.14 19.3417 234.173 19.8 231.556 19.8ZM229.581 12.025V16.5C229.865 16.5333 230.173 16.5583 230.506 16.575C230.84 16.5917 231.206 16.6 231.606 16.6C232.773 16.6 233.715 16.4333 234.431 16.1C235.148 15.7667 235.506 15.15 235.506 14.25C235.506 13.45 235.206 12.8833 234.606 12.55C234.006 12.2 233.148 12.025 232.031 12.025H229.581ZM229.581 9.05H231.481C232.681 9.05 233.54 8.9 234.056 8.6C234.573 8.28333 234.831 7.78333 234.831 7.1C234.831 6.4 234.565 5.90833 234.031 5.625C233.498 5.34167 232.715 5.2 231.681 5.2C231.348 5.2 230.99 5.20833 230.606 5.225C230.223 5.225 229.881 5.24167 229.581 5.275V9.05Z" fill="white"/>
<path d="M244.853 10.9C244.853 11.75 244.953 12.5167 245.153 13.2C245.37 13.8833 245.67 14.475 246.053 14.975C246.453 15.4583 246.936 15.8333 247.503 16.1C248.07 16.3667 248.72 16.5 249.453 16.5C250.17 16.5 250.811 16.3667 251.378 16.1C251.961 15.8333 252.445 15.4583 252.828 14.975C253.228 14.475 253.528 13.8833 253.728 13.2C253.945 12.5167 254.053 11.75 254.053 10.9C254.053 10.05 253.945 9.28333 253.728 8.6C253.528 7.9 253.228 7.30833 252.828 6.825C252.445 6.325 251.961 5.94167 251.378 5.675C250.811 5.40833 250.17 5.275 249.453 5.275C248.72 5.275 248.07 5.41667 247.503 5.7C246.936 5.96667 246.453 6.35 246.053 6.85C245.67 7.33333 245.37 7.925 245.153 8.625C244.953 9.30833 244.853 10.0667 244.853 10.9ZM258.078 10.9C258.078 12.3833 257.853 13.6917 257.403 14.825C256.97 15.9417 256.37 16.8833 255.603 17.65C254.836 18.4 253.92 18.9667 252.853 19.35C251.803 19.7333 250.67 19.925 249.453 19.925C248.27 19.925 247.153 19.7333 246.103 19.35C245.053 18.9667 244.136 18.4 243.353 17.65C242.57 16.8833 241.953 15.9417 241.503 14.825C241.053 13.6917 240.828 12.3833 240.828 10.9C240.828 9.41667 241.061 8.11667 241.528 7C241.995 5.86667 242.62 4.91667 243.403 4.15C244.203 3.38333 245.12 2.80833 246.153 2.425C247.203 2.04167 248.303 1.85 249.453 1.85C250.636 1.85 251.753 2.04167 252.803 2.425C253.853 2.80833 254.77 3.38333 255.553 4.15C256.336 4.91667 256.953 5.86667 257.403 7C257.853 8.11667 258.078 9.41667 258.078 10.9Z" fill="white"/>
</svg>
