<svg width="24" height="24" viewBox="0 0 24 24" fill="none" xmlns="http://www.w3.org/2000/svg">
<path d="M16.8415 7.71429H7.15849L12 11.8642L16.8415 7.71429Z" fill="white"/>
<path d="M12 12.8571C11.8977 12.8571 11.7987 12.8205 11.7211 12.7538L6.42857 8.21735V16.2857H17.5714V8.21735L12.279 12.7538C12.2013 12.8205 12.1023 12.8571 12 12.8571Z" fill="white"/>
<path d="M12 0C5.37263 0 0 5.37263 0 12C0 18.6274 5.37263 24 12 24C18.6274 24 24 18.6274 24 12C23.9925 5.37577 18.6242 0.00753348 12 0ZM18.4286 16.7143C18.4286 16.951 18.2367 17.1429 18 17.1429H6C5.76332 17.1429 5.57143 16.951 5.57143 16.7143V7.28571C5.57143 7.04904 5.76332 6.85714 6 6.85714H18C18.2367 6.85714 18.4286 7.04904 18.4286 7.28571V16.7143Z" fill="white"/>
</svg>
