<svg width="19" height="13" viewBox="0 0 19 13" fill="none" xmlns="http://www.w3.org/2000/svg">
<path d="M18.9949 0H0V12.663H18.9949V0Z" fill="#F0F0F0"/>
<path d="M18.9949 0H0V4.22098H18.9949V0Z" fill="#D80027"/>
<path d="M18.9949 8.44199H0V12.663H18.9949V8.44199Z" fill="#6DA544"/>
<path d="M8.39624 7.98324H10.5986V7.04722L10.1581 7.26748L9.49742 6.60681L8.83672 7.26748L8.39624 7.04722V7.98324Z" fill="#FFDA44"/>
<path d="M7.13624 6.88205L7.23874 7.19754H7.57041L7.30207 7.3925L7.40458 7.70792L7.13624 7.51296L6.86786 7.70792L6.97037 7.3925L6.70203 7.19754H7.03369L7.13624 6.88205Z" fill="#FFDA44"/>
<path d="M7.45399 5.78094L7.55649 6.09636H7.88816L7.61982 6.29132L7.72233 6.60681L7.45399 6.41182L7.18561 6.60681L7.28812 6.29132L7.01978 6.09636H7.35144L7.45399 5.78094Z" fill="#FFDA44"/>
<path d="M8.36249 4.95505L8.465 5.27047H8.79667L8.52833 5.46542L8.63083 5.78092L8.36249 5.58592L8.09412 5.78092L8.19662 5.46542L7.92828 5.27047H8.25995L8.36249 4.95505Z" fill="#FFDA44"/>
<path d="M11.8586 6.88205L11.7561 7.19754H11.4244L11.6928 7.3925L11.5903 7.70792L11.8586 7.51296L12.127 7.70792L12.0245 7.3925L12.2928 7.19754H11.9612L11.8586 6.88205Z" fill="#FFDA44"/>
<path d="M11.5408 5.78094L11.4383 6.09636H11.1066L11.375 6.29132L11.2725 6.60681L11.5408 6.41182L11.8092 6.60681L11.7067 6.29132L11.975 6.09636H11.6433L11.5408 5.78094Z" fill="#FFDA44"/>
<path d="M10.6323 4.95505L10.5298 5.27047H10.1981L10.4665 5.46542L10.364 5.78092L10.6323 5.58592L10.9007 5.78092L10.7982 5.46542L11.0665 5.27047H10.7348L10.6323 4.95505Z" fill="#FFDA44"/>
<path d="M9.49738 4.54208L9.59989 4.85754H9.93159L9.66322 5.05253L9.76572 5.36795L9.49738 5.17303L9.22904 5.36795L9.33155 5.05253L9.06317 4.85754H9.39488L9.49738 4.54208Z" fill="#FFDA44"/>
</svg>
