<svg width="89" height="88" viewBox="0 0 89 88" fill="none" xmlns="http://www.w3.org/2000/svg">
<path fill-rule="evenodd" clip-rule="evenodd" d="M4.91479 79.8319H83.5531V82.6404H4.91479V79.8319ZM9.12756 74.2149H54.0637C53.6425 76.0639 53.0339 77.0234 50.7403 77.0234H12.451C9.24458 77.0234 9.40841 74.8936 9.12756 74.2149ZM62.4659 72.2724V65.7894H73.6999C73.6999 71.383 74.8233 77.0234 68.9722 77.0234C65.9765 77.0234 62.4659 77 62.4659 72.2724ZM77.3978 71.4064H76.5318V68.5979H79.3403V69.4638C79.3169 70.7979 78.7084 71.4064 77.3978 71.4064ZM25.0893 39.1085C25.885 39.1085 25.2999 39.8341 27.4297 40.9809C30.3084 42.5256 34.9425 42.4085 37.4701 39.5532C37.7276 39.249 37.5637 39.1085 38.0786 39.1085C41.4722 39.1085 45.0999 40.6766 46.5042 43.3213H16.6637C18.068 40.6766 21.6956 39.1085 25.0893 39.1085ZM27.3595 32.6256C27.3595 34.2873 27.1254 36.5575 27.851 37.5873C28.6233 38.6873 30.3552 39.1553 31.5722 39.1319C36.5105 38.9915 35.785 35.8787 35.785 32.649C35.1765 32.7894 34.7786 33.0468 34.0999 33.2341C30.8701 34.1 28.9978 33 27.3595 32.6256ZM24.551 23.1468V19.449C30.051 19.449 31.3148 18.7702 35.785 15.7745C36.2297 16.4298 38.5935 18.349 38.5935 18.9341V23.1468C38.5935 33.0936 24.551 33.0936 24.551 23.1468ZM41.402 22.2575V19.449C42.0573 19.6128 42.8063 20.1277 42.8063 20.8532C42.8063 21.6021 42.0573 22.117 41.402 22.2575ZM21.7659 19.449V22.2575C21.0169 22.0702 20.4318 21.6256 20.4318 20.8532C20.4084 19.8702 21.0637 19.7766 21.7659 19.449ZM25.2531 16.6404C31.8765 16.6404 34.2871 12.4277 35.785 12.4277C37.6808 12.4277 39.202 16.6404 41.402 16.6404V13.317C41.402 7.62981 37.9616 4.02555 32.2744 4.02555H30.7063C25.2765 4.02555 21.7659 7.70002 21.7659 13.1532V16.6638H25.2531V16.6404ZM17.5531 20.5021C17.5531 25.2766 21.251 24.7149 21.7659 25.2298C22.0935 25.5341 22.0233 26.8915 22.8893 28.3192C25.0659 31.9702 24.5744 28.5298 24.5744 36.2766C20.5722 36.2766 18.6999 37.4234 16.1722 39.4596C15.5169 39.9745 15.5637 39.8809 15.0254 40.583C14.4403 41.3553 13.5744 42.2915 13.3403 43.2979C11.3042 43.2979 9.78288 43.0639 8.42543 43.8362C7.41905 44.3979 6.31905 45.6149 6.31905 47.1596V53.4787C6.31905 54.5787 9.10415 55.4447 9.15096 52.9639C9.22117 49.7575 8.42543 46.1064 10.719 46.1064H52.4722C53.4318 46.1064 54.0403 46.7383 54.0403 47.6745V71.3596H9.10415V65.3915C9.10415 63.9873 6.29564 63.9873 6.29564 65.3915V74.683C6.29564 75.4553 6.71692 76.4383 6.99777 76.9532C5.99139 76.9532 5.00841 76.9532 4.00203 76.9532C1.38075 76.9298 2.08288 77.9362 2.08288 84.3255C2.08288 84.7468 2.71479 85.3787 3.13607 85.3787H84.9339C85.7765 85.3787 86.3382 84.817 86.3382 83.9745C86.3382 75.9936 87.1105 76.9532 81.6105 76.9532C79.5042 76.9532 77.3978 76.9532 75.2914 76.9532C75.5254 76.0872 76.3212 75.4085 76.3446 74.1447H78.2637C80.1829 74.1447 82.1254 72.2255 82.1254 70.283C82.1254 65.017 82.8042 65.7192 76.5084 65.7192C76.5084 64.5724 76.7659 62.9107 75.1042 62.9107H61.0616C60.2191 62.9107 59.6573 63.4724 59.6573 64.3149V73.2553C59.6573 74.8468 60.4297 75.9936 61.0616 76.9298H56.1467C56.4276 76.4149 56.8488 75.4319 56.8488 74.6596V47.183C56.8488 45.6383 55.7488 44.4213 54.7425 43.8596C53.385 43.0873 51.8637 43.3213 49.8276 43.3213C49.1254 40.3256 43.7893 36.3 39.4829 36.3H38.6169V30.8702C38.6169 30.4724 39.6935 29.466 40.2552 28.483L41.3318 25.3468C41.8233 24.6213 42.4318 25.5575 44.2573 24.0596C45.7786 22.7958 46.1063 20.1979 44.9127 18.4192C43.7659 16.6638 44.2105 17.6 44.2105 14.2064C44.2105 10.7426 44.2105 9.92342 43.0871 7.44257C41.7765 4.54045 37.8212 1.21704 33.6786 1.21704H29.4659C25.2063 1.21704 21.5084 4.51704 20.0339 7.41917C17.9744 11.5383 19.5425 16.2192 18.7701 17.7404C18.6531 17.9745 18.2084 18.466 17.9744 18.8873C17.7403 19.3553 17.5531 19.8234 17.5531 20.5021Z" fill="#050008"/>
<path fill-rule="evenodd" clip-rule="evenodd" d="M32.9765 58.7682C32.9765 59.4937 32.2978 60.1724 31.5723 60.1724C30.4723 60.1724 29.7233 58.7682 30.6361 57.832C31.5489 56.9192 32.9765 57.7618 32.9765 58.7682ZM27.3595 58.4171C27.3595 64.5256 35.785 64.5256 35.785 58.4171C35.785 56.2639 33.9361 54.5554 31.2212 54.5554C29.3021 54.5554 27.3595 56.4746 27.3595 58.4171Z" fill="#050008"/>
<path fill-rule="evenodd" clip-rule="evenodd" d="M63.8701 52.8V59.1192C63.8701 60.5234 66.6786 60.5234 66.6786 59.1192V52.8C66.6786 51.3958 63.8701 51.3958 63.8701 52.8Z" fill="#050008"/>
<path fill-rule="evenodd" clip-rule="evenodd" d="M69.4871 52.8V59.1192C69.4871 60.1021 71.1254 60.5 71.8509 59.9149C71.9914 59.7979 72.2956 59.3766 72.2956 59.1192V52.8C72.2956 51.3958 69.4871 51.3958 69.4871 52.8Z" fill="#050008"/>
<path fill-rule="evenodd" clip-rule="evenodd" d="M6.31906 58.4171C6.31906 60.6639 5.9914 61.5766 8.07438 61.5766C9.59565 61.5766 9.59565 57.3639 8.07438 57.3639C7.39565 57.3639 6.31906 57.4809 6.31906 58.4171Z" fill="#050008"/>
</svg>
