<svg width="86" height="85" viewBox="0 0 86 85" fill="none" xmlns="http://www.w3.org/2000/svg">
<path d="M42.1324 26.5625C42.1324 22.4732 40.9026 18.5433 38.5744 15.1977L36.3936 16.7158C38.411 19.6138 39.4762 23.0191 39.4762 26.5625C39.4762 36.0825 31.7306 43.8281 22.2106 43.8281C12.6906 43.8281 4.94495 36.0825 4.94495 26.5625C4.94495 17.0425 12.6906 9.29688 22.2106 9.29688C25.2852 9.29688 28.304 10.115 30.9403 11.6623L32.2857 9.37125C29.2417 7.58492 25.758 6.64062 22.2106 6.64062C11.2256 6.64062 2.2887 15.5776 2.2887 26.5625C2.2887 35.2192 7.84956 42.5837 15.5779 45.3249L9.77667 49.1938C6.7512 51.2098 4.94495 54.5846 4.94495 58.2197C4.94495 59.3884 5.13221 60.5426 5.50143 61.6502L10.2574 75.9183V76.7178L6.78042 83.6719H32.3282L28.8512 76.7178V69.0625V67.7344H30.1793C32.376 67.7344 34.1637 65.9467 34.1637 63.75C34.1637 62.726 33.7639 61.8003 33.1278 61.0938C33.7653 60.3872 34.1637 59.4615 34.1637 58.4375C34.1637 57.4135 33.7639 56.4878 33.1278 55.7812C33.7653 55.0747 34.1637 54.149 34.1637 53.125C34.1637 52.6575 34.0681 52.2139 33.9193 51.7969H35.4918C37.6885 51.7969 39.4762 50.0092 39.4762 47.8125C39.4762 45.6158 37.6885 43.8281 35.4918 43.8281H32.1064C38.087 40.387 42.1324 33.9442 42.1324 26.5625ZM26.1949 46.0833V49.1406H24.8668C24.3794 49.1406 23.9159 49.2416 23.4842 49.4023C23.5002 49.2482 23.5387 49.0968 23.5387 48.9401V48.2149C23.5387 47.5814 23.3979 46.9811 23.1549 46.4366C24.1882 46.3874 25.2081 46.2838 26.1949 46.0833ZM21.9184 61.0938C21.2809 61.8003 20.8824 62.726 20.8824 63.75C20.8824 65.9467 22.6701 67.7344 24.8668 67.7344H26.1949V69.0625C26.1949 69.7943 25.5986 70.3906 24.8668 70.3906H19.5543C18.8225 70.3906 18.2262 69.7943 18.2262 69.0625V57.1094C18.2262 55.8623 18.8225 54.6696 19.8199 53.9219L20.8824 53.125C20.8824 54.149 21.2822 55.0747 21.9184 55.7812C21.2809 56.4878 20.8824 57.4135 20.8824 58.4375C20.8824 59.4615 21.2822 60.3872 21.9184 61.0938ZM8.02088 60.8109C7.74198 59.9755 7.6012 59.1029 7.6012 58.2197C7.6012 55.4745 8.96518 52.9258 11.2496 51.4024L18.1917 46.7752C18.4772 46.5853 18.8092 46.4844 19.1519 46.4844C20.1068 46.4844 20.8824 47.26 20.8824 48.2149V48.9401C20.8824 49.482 20.6235 49.9986 20.1905 50.324L18.2262 51.7969C16.5634 53.044 15.5699 55.0309 15.5699 57.1094V69.0625C15.5699 71.2592 17.3576 73.0469 19.5543 73.0469H24.8668C25.3343 73.0469 25.7779 72.9513 26.1949 72.8025V75.7031H12.9137V75.488L8.02088 60.8109ZM11.0782 81.0156L12.4064 78.3594H26.7023L28.0304 81.0156H11.0782ZM30.1793 65.0781H24.8668C24.135 65.0781 23.5387 64.4818 23.5387 63.75C23.5387 63.0182 24.135 62.4219 24.8668 62.4219H30.1793C30.9111 62.4219 31.5074 63.0182 31.5074 63.75C31.5074 64.4818 30.9111 65.0781 30.1793 65.0781ZM30.1793 59.7656H24.8668C24.135 59.7656 23.5387 59.1693 23.5387 58.4375C23.5387 57.7057 24.135 57.1094 24.8668 57.1094H30.1793C30.9111 57.1094 31.5074 57.7057 31.5074 58.4375C31.5074 59.1693 30.9111 59.7656 30.1793 59.7656ZM30.1793 54.4531H24.8668C24.135 54.4531 23.5387 53.8568 23.5387 53.125C23.5387 52.3932 24.135 51.7969 24.8668 51.7969H27.5231H30.1793C30.9111 51.7969 31.5074 52.3932 31.5074 53.125C31.5074 53.8568 30.9111 54.4531 30.1793 54.4531ZM35.4918 46.4844C36.2236 46.4844 36.8199 47.0807 36.8199 47.8125C36.8199 48.5443 36.2236 49.1406 35.4918 49.1406H30.1793H28.8512V46.4844H35.4918Z" fill="black"/>
<path d="M77.9918 1.32812H51.4293C47.7677 1.32812 44.7887 4.30711 44.7887 7.96875V50.4688C44.7887 54.1304 47.7677 57.1094 51.4293 57.1094H53.9289L54.7124 58.6766C55.1706 59.5943 55.4137 60.6223 55.4137 61.6476V67.5963C55.4137 69.6987 56.1375 71.7613 57.451 73.4041L60.2773 76.937C58.8549 78.3899 58.0699 80.3064 58.0699 82.3438V83.6719H81.9762V82.3438C81.9762 80.3064 81.1913 78.3899 79.7689 76.9356L82.5951 73.4028C83.9086 71.7613 84.6324 69.6987 84.6324 67.5963V55.7812V53.8714V7.96875C84.6324 4.30711 81.6535 1.32812 77.9918 1.32812ZM52.7574 49.1406V46.4844H55.4137L55.415 49.1406H52.7574ZM60.9002 81.0156C61.1286 80.1656 61.5762 79.3873 62.215 78.7485L62.6042 78.3594H77.442L77.8311 78.7485C78.4699 79.3873 78.9175 80.1656 79.146 81.0156H60.9002ZM81.9762 55.7812V67.5963C81.9762 69.0984 81.4596 70.5713 80.5206 71.7453L77.3543 75.7031H62.6918L59.5242 71.744C58.5866 70.5699 58.0699 69.097 58.0699 67.5963V61.6476C58.0699 60.2119 57.7313 58.7735 57.0885 57.4892L55.5 54.3137C55.4429 54.1995 55.4137 54.072 55.4137 53.9458C55.4137 53.4929 55.7816 53.125 56.2345 53.125C58.7114 53.125 60.7262 55.1398 60.7262 57.6167V59.7656V63.75H63.3824V59.7656V57.6167V37.1875C63.3824 36.4557 63.9788 35.8594 64.7106 35.8594C65.4424 35.8594 66.0387 36.4557 66.0387 37.1875V46.1112V63.75H68.6949V49.5138L71.3512 50.1779V63.75H74.0074V50.8419L76.6637 51.506V63.75H79.3199V52.1701L80.9695 52.5831C81.5618 52.7305 81.9762 53.2605 81.9762 53.8714V55.7812ZM74.0074 48.1034V46.4844H76.6637V48.7674L74.0074 48.1034ZM81.9762 50.1287C81.8567 50.0863 81.7398 50.0371 81.6149 50.0052L79.3199 49.4315V46.4844C79.3199 45.0195 78.1286 43.8281 76.6637 43.8281H74.0074C72.5425 43.8281 71.3512 45.0195 71.3512 46.4844V47.4393L68.6949 46.7752V37.1875C68.6949 34.9908 66.9073 33.2031 64.7106 33.2031C62.5139 33.2031 60.7262 34.9908 60.7262 37.1875V52.1023C59.8377 51.3772 58.7911 50.8406 57.6237 50.6095C57.9053 50.1885 58.0699 49.6838 58.0699 49.1406V46.4844C58.0699 45.0195 56.8786 43.8281 55.4137 43.8281H52.7574C51.2925 43.8281 50.1012 45.0195 50.1012 46.4844V49.1406C50.1012 50.6055 51.2925 51.7969 52.7574 51.7969H53.5224C53.051 52.3905 52.7574 53.1303 52.7574 53.9458C52.7574 54.1158 52.792 54.2845 52.8172 54.4531H51.4293C49.2326 54.4531 47.4449 52.6655 47.4449 50.4688V7.96875C47.4449 5.77203 49.2326 3.98438 51.4293 3.98438H77.9918C80.1885 3.98438 81.9762 5.77203 81.9762 7.96875V50.1287Z" fill="black"/>
<path d="M76.6637 6.64062H52.7574C51.2925 6.64062 50.1012 7.83195 50.1012 9.29688V17.2656C50.1012 18.7305 51.2925 19.9219 52.7574 19.9219H76.6637C78.1286 19.9219 79.3199 18.7305 79.3199 17.2656V9.29688C79.3199 7.83195 78.1286 6.64062 76.6637 6.64062ZM52.7574 17.2656V9.29688H76.6637L76.665 17.2656H52.7574Z" fill="black"/>
<path d="M55.4137 22.5781H52.7574C51.2925 22.5781 50.1012 23.7695 50.1012 25.2344V27.8906C50.1012 29.3555 51.2925 30.5469 52.7574 30.5469H55.4137C56.8786 30.5469 58.0699 29.3555 58.0699 27.8906V25.2344C58.0699 23.7695 56.8786 22.5781 55.4137 22.5781ZM52.7574 27.8906V25.2344H55.4137L55.415 27.8906H52.7574Z" fill="black"/>
<path d="M66.0387 22.5781H63.3824C61.9175 22.5781 60.7262 23.7695 60.7262 25.2344V27.8906C60.7262 29.3555 61.9175 30.5469 63.3824 30.5469H66.0387C67.5036 30.5469 68.6949 29.3555 68.6949 27.8906V25.2344C68.6949 23.7695 67.5036 22.5781 66.0387 22.5781ZM63.3824 27.8906V25.2344H66.0387L66.04 27.8906H63.3824Z" fill="black"/>
<path d="M76.6637 22.5781H74.0074C72.5425 22.5781 71.3512 23.7695 71.3512 25.2344V27.8906C71.3512 29.3555 72.5425 30.5469 74.0074 30.5469H76.6637C78.1286 30.5469 79.3199 29.3555 79.3199 27.8906V25.2344C79.3199 23.7695 78.1286 22.5781 76.6637 22.5781ZM74.0074 27.8906V25.2344H76.6637L76.665 27.8906H74.0074Z" fill="black"/>
<path d="M55.4137 33.2031H52.7574C51.2925 33.2031 50.1012 34.3945 50.1012 35.8594V38.5156C50.1012 39.9805 51.2925 41.1719 52.7574 41.1719H55.4137C56.8786 41.1719 58.0699 39.9805 58.0699 38.5156V35.8594C58.0699 34.3945 56.8786 33.2031 55.4137 33.2031ZM52.7574 38.5156V35.8594H55.4137L55.415 38.5156H52.7574Z" fill="black"/>
<path d="M76.6637 33.2031H74.0074C72.5425 33.2031 71.3512 34.3945 71.3512 35.8594V38.5156C71.3512 39.9805 72.5425 41.1719 74.0074 41.1719H76.6637C78.1286 41.1719 79.3199 39.9805 79.3199 38.5156V35.8594C79.3199 34.3945 78.1286 33.2031 76.6637 33.2031ZM74.0074 38.5156V35.8594H76.6637L76.665 38.5156H74.0074Z" fill="black"/>
<path d="M34.1637 7.96875H37.7709L24.8283 21.9898L19.5543 16.7158L10.2867 25.9834C10.5921 19.6629 15.8156 14.6094 22.2106 14.6094C23.8986 14.6094 25.5309 14.9547 27.0609 15.6334L28.1406 13.2069C26.268 12.3755 24.2731 11.9531 22.2106 11.9531C14.1555 11.9531 7.6012 18.5074 7.6012 26.5625C7.6012 34.6176 14.1555 41.1719 22.2106 41.1719C30.2656 41.1719 36.8199 34.6176 36.8199 26.5625C36.8199 24.0218 36.1572 21.5209 34.9048 19.3282L32.5992 20.6457C33.6231 22.4373 34.1637 24.484 34.1637 26.5625C34.1637 29.3994 33.1649 32.0065 31.5074 34.0584V18.6695L39.4762 10.038V13.2812H42.1324V5.3125H34.1637V7.96875ZM12.9137 34.0584C11.8299 32.717 11.0397 31.1366 10.6147 29.4113L12.9137 27.1123V34.0584ZM18.2262 37.8184C17.2819 37.4837 16.3881 37.0441 15.5699 36.4942V24.4561L18.2262 21.7998V37.8184ZM23.5387 38.4373C23.1017 38.4864 22.6595 38.5156 22.2106 38.5156C21.7617 38.5156 21.3194 38.4864 20.8824 38.4373V21.7998L23.5387 24.4561V38.4373ZM28.8512 36.4942C28.0331 37.0427 27.1392 37.4823 26.1949 37.8184V24.4242L28.8512 21.5462V36.4942Z" fill="black"/>
</svg>
