<svg width="85" height="85" viewBox="0 0 85 85" fill="none" xmlns="http://www.w3.org/2000/svg">
<path d="M78.3594 33.2031H66.4062V30.5469H75.7031C77.4643 30.5469 79.1534 29.8472 80.3988 28.6019C81.6441 27.3565 82.3438 25.6675 82.3438 23.9062C82.3438 22.145 81.6441 20.456 80.3988 19.2106C79.1534 17.9653 77.4643 17.2656 75.7031 17.2656H66.4062V3.98438C66.4062 3.63213 66.2663 3.29432 66.0173 3.04525C65.7682 2.79618 65.4304 2.65625 65.0781 2.65625H3.98438C3.63213 2.65625 3.29432 2.79618 3.04525 3.04525C2.79618 3.29432 2.65625 3.63213 2.65625 3.98438V63.75C2.65669 63.9353 2.69591 64.1185 2.77139 64.2878C2.84688 64.457 2.95695 64.6086 3.09453 64.7328L16.3758 76.6859C16.6173 76.9106 16.9358 77.0342 17.2656 77.0312H42.5V78.3594C42.5032 79.4151 42.9239 80.4267 43.6705 81.1733C44.417 81.9198 45.4286 82.3406 46.4844 82.3438H78.3594C79.4151 82.3406 80.4267 81.9198 81.1733 81.1733C81.9198 80.4267 82.3406 79.4151 82.3438 78.3594V37.1875C82.3406 36.1317 81.9198 35.1201 81.1733 34.3736C80.4267 33.6271 79.4151 33.2063 78.3594 33.2031ZM74.375 19.9219H75.7031C76.7598 19.9219 77.7733 20.3417 78.5205 21.0889C79.2677 21.8361 79.6875 22.8495 79.6875 23.9062C79.6875 24.963 79.2677 25.9764 78.5205 26.7236C77.7733 27.4708 76.7598 27.8906 75.7031 27.8906H74.375V19.9219ZM71.7188 27.8906H26.5625V25.2344H71.7188V27.8906ZM71.7188 19.9219V22.5781H26.5625V19.9219H71.7188ZM15.9375 72.7148L7.45078 65.0781H15.9375V72.7148ZM42.5 37.1875V74.375H18.5938V63.75C18.5938 63.3978 18.4538 63.0599 18.2048 62.8109C17.9557 62.5618 17.6179 62.4219 17.2656 62.4219H5.3125V5.3125H63.75V17.2656H25.2344C25.0803 17.2651 24.9274 17.2921 24.7828 17.3453L10.1734 22.6578C9.91704 22.7509 9.69552 22.9206 9.53897 23.144C9.38242 23.3673 9.29843 23.6335 9.29843 23.9062C9.29843 24.179 9.38242 24.4452 9.53897 24.6685C9.69552 24.8919 9.91704 25.0616 10.1734 25.1547L24.7828 30.4672C24.9274 30.5204 25.0803 30.5474 25.2344 30.5469H63.75V33.2031H46.4844C45.4286 33.2063 44.417 33.6271 43.6705 34.3736C42.9239 35.1201 42.5032 36.1317 42.5 37.1875ZM23.9062 20.493V27.3195L14.5164 23.9062L23.9062 20.493ZM79.6875 78.3594C79.6875 78.7116 79.5476 79.0494 79.2985 79.2985C79.0494 79.5476 78.7116 79.6875 78.3594 79.6875H46.4844C46.1321 79.6875 45.7943 79.5476 45.5452 79.2985C45.2962 79.0494 45.1562 78.7116 45.1562 78.3594V37.1875C45.1562 36.8353 45.2962 36.4974 45.5452 36.2484C45.7943 35.9993 46.1321 35.8594 46.4844 35.8594H78.3594C78.7116 35.8594 79.0494 35.9993 79.2985 36.2484C79.5476 36.4974 79.6875 36.8353 79.6875 37.1875V78.3594Z" fill="black"/>
<path d="M75.7031 38.5156H49.1406C48.7884 38.5156 48.4506 38.6556 48.2015 38.9046C47.9524 39.1537 47.8125 39.4915 47.8125 39.8438V46.4844C47.8125 46.8366 47.9524 47.1744 48.2015 47.4235C48.4506 47.6726 48.7884 47.8125 49.1406 47.8125H75.7031C76.0554 47.8125 76.3932 47.6726 76.6423 47.4235C76.8913 47.1744 77.0312 46.8366 77.0312 46.4844V39.8438C77.0312 39.4915 76.8913 39.1537 76.6423 38.9046C76.3932 38.6556 76.0554 38.5156 75.7031 38.5156ZM74.375 45.1562H50.4688V41.1719H74.375V45.1562Z" fill="black"/>
<path d="M54.4531 50.4688H49.1406C48.7884 50.4688 48.4506 50.6087 48.2015 50.8577C47.9524 51.1068 47.8125 51.4446 47.8125 51.7969V57.1094C47.8125 57.4616 47.9524 57.7994 48.2015 58.0485C48.4506 58.2976 48.7884 58.4375 49.1406 58.4375H54.4531C54.8054 58.4375 55.1432 58.2976 55.3923 58.0485C55.6413 57.7994 55.7812 57.4616 55.7812 57.1094V51.7969C55.7812 51.4446 55.6413 51.1068 55.3923 50.8577C55.1432 50.6087 54.8054 50.4688 54.4531 50.4688ZM53.125 55.7812H50.4688V53.125H53.125V55.7812Z" fill="black"/>
<path d="M54.4531 59.7656H49.1406C48.7884 59.7656 48.4506 59.9056 48.2015 60.1546C47.9524 60.4037 47.8125 60.7415 47.8125 61.0938V66.4062C47.8125 66.7585 47.9524 67.0963 48.2015 67.3454C48.4506 67.5944 48.7884 67.7344 49.1406 67.7344H54.4531C54.8054 67.7344 55.1432 67.5944 55.3923 67.3454C55.6413 67.0963 55.7812 66.7585 55.7812 66.4062V61.0938C55.7812 60.7415 55.6413 60.4037 55.3923 60.1546C55.1432 59.9056 54.8054 59.7656 54.4531 59.7656ZM53.125 65.0781H50.4688V62.4219H53.125V65.0781Z" fill="black"/>
<path d="M54.4531 69.0625H49.1406C48.7884 69.0625 48.4506 69.2024 48.2015 69.4515C47.9524 69.7006 47.8125 70.0384 47.8125 70.3906V75.7031C47.8125 76.0554 47.9524 76.3932 48.2015 76.6423C48.4506 76.8913 48.7884 77.0312 49.1406 77.0312H54.4531C54.8054 77.0312 55.1432 76.8913 55.3923 76.6423C55.6413 76.3932 55.7812 76.0554 55.7812 75.7031V70.3906C55.7812 70.0384 55.6413 69.7006 55.3923 69.4515C55.1432 69.2024 54.8054 69.0625 54.4531 69.0625ZM53.125 74.375H50.4688V71.7188H53.125V74.375Z" fill="black"/>
<path d="M65.0781 50.4688H59.7656C59.4134 50.4688 59.0756 50.6087 58.8265 50.8577C58.5774 51.1068 58.4375 51.4446 58.4375 51.7969V57.1094C58.4375 57.4616 58.5774 57.7994 58.8265 58.0485C59.0756 58.2976 59.4134 58.4375 59.7656 58.4375H65.0781C65.4304 58.4375 65.7682 58.2976 66.0173 58.0485C66.2663 57.7994 66.4062 57.4616 66.4062 57.1094V51.7969C66.4062 51.4446 66.2663 51.1068 66.0173 50.8577C65.7682 50.6087 65.4304 50.4688 65.0781 50.4688ZM63.75 55.7812H61.0938V53.125H63.75V55.7812Z" fill="black"/>
<path d="M65.0781 59.7656H59.7656C59.4134 59.7656 59.0756 59.9056 58.8265 60.1546C58.5774 60.4037 58.4375 60.7415 58.4375 61.0938V66.4062C58.4375 66.7585 58.5774 67.0963 58.8265 67.3454C59.0756 67.5944 59.4134 67.7344 59.7656 67.7344H65.0781C65.4304 67.7344 65.7682 67.5944 66.0173 67.3454C66.2663 67.0963 66.4062 66.7585 66.4062 66.4062V61.0938C66.4062 60.7415 66.2663 60.4037 66.0173 60.1546C65.7682 59.9056 65.4304 59.7656 65.0781 59.7656ZM63.75 65.0781H61.0938V62.4219H63.75V65.0781Z" fill="black"/>
<path d="M65.0781 69.0625H59.7656C59.4134 69.0625 59.0756 69.2024 58.8265 69.4515C58.5774 69.7006 58.4375 70.0384 58.4375 70.3906V75.7031C58.4375 76.0554 58.5774 76.3932 58.8265 76.6423C59.0756 76.8913 59.4134 77.0312 59.7656 77.0312H65.0781C65.4304 77.0312 65.7682 76.8913 66.0173 76.6423C66.2663 76.3932 66.4062 76.0554 66.4062 75.7031V70.3906C66.4062 70.0384 66.2663 69.7006 66.0173 69.4515C65.7682 69.2024 65.4304 69.0625 65.0781 69.0625ZM63.75 74.375H61.0938V71.7188H63.75V74.375Z" fill="black"/>
<path d="M75.7031 50.4688H70.3906C70.0384 50.4688 69.7006 50.6087 69.4515 50.8577C69.2024 51.1068 69.0625 51.4446 69.0625 51.7969V57.1094C69.0625 57.4616 69.2024 57.7994 69.4515 58.0485C69.7006 58.2976 70.0384 58.4375 70.3906 58.4375H75.7031C76.0554 58.4375 76.3932 58.2976 76.6423 58.0485C76.8913 57.7994 77.0312 57.4616 77.0312 57.1094V51.7969C77.0312 51.4446 76.8913 51.1068 76.6423 50.8577C76.3932 50.6087 76.0554 50.4688 75.7031 50.4688ZM74.375 55.7812H71.7188V53.125H74.375V55.7812Z" fill="black"/>
<path d="M75.7031 59.7656H70.3906C70.0384 59.7656 69.7006 59.9056 69.4515 60.1546C69.2024 60.4037 69.0625 60.7415 69.0625 61.0938V75.7031C69.0625 76.0554 69.2024 76.3932 69.4515 76.6423C69.7006 76.8913 70.0384 77.0312 70.3906 77.0312H75.7031C76.0554 77.0312 76.3932 76.8913 76.6423 76.6423C76.8913 76.3932 77.0312 76.0554 77.0312 75.7031V61.0938C77.0312 60.7415 76.8913 60.4037 76.6423 60.1546C76.3932 59.9056 76.0554 59.7656 75.7031 59.7656ZM74.375 74.375H71.7188V62.4219H74.375V74.375Z" fill="black"/>
</svg>
