<svg width="87" height="86" viewBox="0 0 87 86" fill="none" xmlns="http://www.w3.org/2000/svg">
<g clip-path="url(#clip0)">
<path d="M61.2108 25.5334C61.2108 30.5822 65.0842 34.1083 70.629 34.1083C76.2081 34.1083 80.1046 30.5822 80.1046 25.5334C80.1046 24.9676 79.7643 24.4571 79.2415 24.2405L71.9985 4.82391C71.9937 4.81024 71.9876 4.79862 71.9814 4.78495C71.9712 4.76035 71.9609 4.73575 71.9493 4.71115C71.9397 4.69133 71.9295 4.67288 71.9192 4.65375C71.909 4.63393 71.8974 4.61206 71.8844 4.59224C71.8714 4.57174 71.8598 4.55261 71.8468 4.53347C71.8338 4.51366 71.8222 4.49657 71.8085 4.4788C71.7955 4.46104 71.7805 4.44259 71.7655 4.42414C71.7511 4.40637 71.7368 4.38928 71.7211 4.3722C71.706 4.35443 71.6917 4.34076 71.6766 4.32505C71.6616 4.31001 71.6418 4.29019 71.624 4.27448C71.609 4.26081 71.5939 4.24851 71.5789 4.23553C71.5591 4.21912 71.5386 4.20272 71.5174 4.18701C71.5024 4.17607 71.4867 4.16514 71.4709 4.15489C71.4491 4.13985 71.4272 4.1255 71.404 4.11184C71.3869 4.10158 71.3691 4.09202 71.3513 4.08245C71.3295 4.07083 71.3069 4.05922 71.2844 4.0476C71.2639 4.03803 71.2427 4.03051 71.2215 4.02095C71.2058 4.01411 71.1914 4.0066 71.175 4.00045C71.1696 3.9984 71.1634 3.99703 71.158 3.99498C71.1354 3.98678 71.1122 3.98063 71.0896 3.97379C71.0671 3.96696 71.0459 3.96013 71.024 3.95466C71.0021 3.94851 70.9823 3.94578 70.9618 3.94099C70.9372 3.93621 70.9133 3.93074 70.8887 3.92733C70.8696 3.92459 70.8504 3.92323 70.8313 3.92118C70.8047 3.91844 70.7787 3.91502 70.7527 3.91434C70.7343 3.91297 70.7151 3.91434 70.6967 3.91434C70.67 3.91434 70.6427 3.91297 70.616 3.91434C70.5976 3.91502 70.5791 3.91776 70.5607 3.91912C70.5334 3.92186 70.5067 3.92391 70.48 3.92801C70.4623 3.93074 70.4438 3.93484 70.4261 3.93826C70.4035 3.94236 70.381 3.94578 70.3591 3.95124H55.9414C55.5436 1.66674 53.5605 0 51.2418 0C48.9232 0 46.9407 1.66674 46.5423 3.95124H32.1246C32.1068 3.94714 32.089 3.94441 32.0706 3.94099C32.0473 3.93621 32.0241 3.93074 32.0009 3.92733C31.981 3.92459 31.9612 3.92323 31.9407 3.92118C31.9154 3.91844 31.8902 3.91502 31.8642 3.91434C31.8457 3.91297 31.8273 3.91434 31.8082 3.91434C31.7815 3.91434 31.7549 3.91297 31.7282 3.91434C31.7104 3.91502 31.692 3.91776 31.6742 3.91912C31.6462 3.92186 31.6189 3.92391 31.5915 3.92801C31.5738 3.93006 31.5574 3.93416 31.5403 3.93758C31.5123 3.94304 31.4836 3.94851 31.4555 3.95534C31.4391 3.95944 31.4234 3.96491 31.407 3.96969C31.3783 3.97789 31.3503 3.98609 31.323 3.99566C31.3182 3.99771 31.3134 3.99908 31.3086 4.00045C31.2956 4.00523 31.284 4.01138 31.271 4.01685C31.2457 4.0271 31.2205 4.03735 31.1959 4.04896C31.1767 4.05853 31.1583 4.0681 31.1398 4.07835C31.118 4.08928 31.0968 4.1009 31.0763 4.1132C31.0558 4.1255 31.038 4.13712 31.0189 4.1501C31.0004 4.1624 30.9813 4.17539 30.9635 4.18906C30.9457 4.20204 30.9273 4.21707 30.9095 4.23142C30.8918 4.24578 30.8747 4.26013 30.8569 4.27584C30.8391 4.29088 30.8255 4.30591 30.8098 4.32095C30.794 4.33666 30.7763 4.35648 30.7599 4.37357C30.7435 4.39133 30.7325 4.405 30.7195 4.42072C30.7038 4.43985 30.6881 4.45967 30.6731 4.47949C30.6608 4.49589 30.6492 4.51297 30.6382 4.53006C30.6246 4.55056 30.6109 4.57106 30.5979 4.59224C30.5856 4.61343 30.576 4.6312 30.5651 4.65101C30.5549 4.67083 30.5439 4.69065 30.5344 4.71115C30.5234 4.73507 30.5132 4.75899 30.5029 4.78427C30.4975 4.79726 30.4913 4.80956 30.4858 4.82254L23.2428 24.2398C22.72 24.4564 22.379 24.9669 22.379 25.5327C22.379 30.5815 26.2524 34.107 31.7972 34.107C37.3763 34.107 41.2728 30.5815 41.2728 25.5327C41.2728 24.9409 40.8997 24.4134 40.3428 24.2152L33.8275 6.75101H46.9011C47.458 7.96809 48.4913 8.90294 49.7582 9.33483V33.3423H48.2596C46.0099 33.3601 44.0405 34.8546 43.4186 37.0161H43.4049C43.0475 37.0017 42.6997 37.1364 42.4448 37.3878C42.1906 37.6393 42.0512 37.9851 42.0608 38.3432V42.591C42.0478 42.9587 42.1824 43.3161 42.4352 43.584C42.6881 43.8511 43.0373 44.0063 43.4049 44.0138H59.0787C59.4477 44.0063 59.7976 43.8518 60.0518 43.5846C60.3054 43.3174 60.442 42.9594 60.4297 42.591V38.3432C60.4379 37.9844 60.2978 37.6386 60.0416 37.3872C59.786 37.1357 59.4375 37.0017 59.0787 37.0161H59.0657C58.4432 34.8546 56.4737 33.3601 54.2241 33.3423H52.5573V9.33483C53.8974 8.96171 55.0045 8.01661 55.5826 6.75101H68.6568L62.1416 24.2159C61.5839 24.4147 61.2115 24.9416 61.2108 25.5334ZM31.7972 31.2457C29.1047 31.2457 26.0145 30.1933 25.3209 26.8694H38.322C37.6325 30.0184 34.7029 31.2457 31.7972 31.2457ZM37.3243 24.0703H26.2701L31.7979 9.25282L37.3243 24.0703ZM57.6306 41.2147H44.8598V39.8152H57.6306V41.2147ZM54.2247 36.1414C54.9108 36.1482 55.5553 36.4708 55.9721 37.0161H46.5115C46.9284 36.4708 47.5735 36.1482 48.2596 36.1414H54.2247ZM53.0876 5.46217C52.7288 6.41479 51.7031 6.93757 50.7211 6.66627C49.7398 6.39566 49.1268 5.42185 49.3072 4.41935C49.4883 3.41753 50.4026 2.71844 51.4168 2.80797C52.4309 2.8968 53.2099 3.74418 53.2133 4.7624C53.1272 4.94691 53.0821 5.14782 53.0821 5.35147C53.0821 5.38905 53.0849 5.42527 53.0883 5.46217H53.0876ZM70.6871 9.25282L76.2149 24.0703H65.1607L70.6871 9.25282ZM77.1545 26.8694C76.465 30.0184 73.5354 31.2457 70.629 31.2457C67.9372 31.2457 64.8464 30.1933 64.1534 26.8694H77.1545Z" fill="black"/>
<path d="M7.351 86H18.9205C19.7166 85.9699 20.3514 85.3241 20.3678 84.5273V78.8218L26.8694 77.5316C28.9236 77.2029 30.2036 77.0731 32.376 77.1722L49.6666 78.0401C55.8668 78.325 61.9071 76.128 66.675 71.8569L78.6442 61.1328C78.6545 61.1233 78.6634 61.1144 78.6736 61.1048C80.9643 58.9303 81.2738 55.3891 79.3952 52.8504L79.3624 52.7985C79.3385 52.7595 79.3132 52.7226 79.2866 52.6871C78.3333 51.4153 76.8955 50.5966 75.3155 50.4258C73.7882 50.2693 72.2663 50.7627 71.1217 51.7857C68.0329 54.4946 63.4673 58.4766 60.1741 61.346C58.0604 63.2014 55.3734 64.2729 52.5641 64.3829L44.3459 64.657H44.3309C43.9311 64.6672 43.5593 64.4506 43.3714 64.0973C43.3666 64.0884 43.3619 64.0918 43.3577 64.0836L42.4352 62.4039C42.2104 61.9891 42.1953 61.4923 42.3949 61.0645C42.5377 60.7276 42.8322 60.4788 43.189 60.3955L51.6819 58.6631C54.5582 58.0973 56.5618 55.2025 56.2434 52.0741C55.9283 48.9873 53.3103 46.6331 50.3705 46.7828L38.9917 46.2798C34.4651 46.1049 30.6225 47.0404 26.0938 49.4055L20.3678 52.4089V50.8324C20.3453 50.0513 19.7022 49.4315 18.9205 49.437H7.351C6.98745 49.439 6.64098 49.5887 6.39019 49.8524C6.13939 50.1155 6.00681 50.4695 6.02253 50.8324V84.5273C6.02253 85.3002 6.57811 86 7.351 86ZM20.3678 55.5668L27.3895 51.8875C31.4562 49.7636 34.8901 48.9238 38.8885 49.0768L50.3254 49.5832C50.3766 49.5853 50.4279 49.5846 50.4791 49.5812C51.9621 49.4841 53.2939 50.7265 53.46 52.3584C53.6336 54.0647 52.6154 55.6283 51.1331 55.9201L42.6306 57.6538C41.4013 57.9107 40.3694 58.7417 39.8568 59.8884C39.2849 61.1233 39.3307 62.5563 39.9805 63.7529L40.8969 65.4271C41.5796 66.7303 42.9423 67.534 44.4136 67.5005H44.4347L52.6714 67.2018C56.1258 67.059 59.4258 65.734 62.0206 63.4501C65.3083 60.5848 69.8752 56.6007 72.9709 53.8864C73.5333 53.3807 74.2823 53.1354 75.0353 53.2105C75.8205 53.2946 76.5367 53.6985 77.0158 54.3265L77.0438 54.3716C77.067 54.4098 77.0923 54.4467 77.1189 54.4823C78.1782 55.8798 78.0224 57.8492 76.7574 59.0629L64.8039 69.7727C60.5855 73.5517 55.2518 75.4945 49.7937 75.2451L32.4976 74.3772C30.0771 74.2665 28.5963 74.4162 26.376 74.7722C26.3589 74.7749 26.3671 74.7784 26.35 74.7811L20.3671 75.9695L20.3678 55.5668ZM8.82161 52.236H17.5687V83.2009H8.82161V52.236Z" fill="black"/>
</g>
<defs>
<clipPath id="clip0">
<rect width="86" height="86" fill="white" transform="translate(0.32019)"/>
</clipPath>
</defs>
</svg>
