<svg width="77" height="76" viewBox="0 0 77 76" fill="none" xmlns="http://www.w3.org/2000/svg">
<g clip-path="url(#clip0)">
<path d="M71.2756 39.786C68.4581 39.2003 64.6413 38.8906 60.238 38.8906C58.4207 38.8906 56.7054 38.9442 55.1169 39.0474V4.08203C55.1169 1.83127 53.2857 0 51.0349 0H4.72241C2.35706 0 0.640381 1.9665 0.640381 4.67578V66.2773C0.640381 67.8904 2.42356 69.7656 4.72241 69.7656H43.8357V71.4727C43.8357 73.9893 47.8735 74.8287 49.2005 75.1046C52.018 75.6904 55.8348 76 60.238 76C64.6413 76 68.4581 75.6904 71.2756 75.1046C72.6026 74.8287 76.6404 73.9893 76.6404 71.4727V43.418C76.6404 40.9014 72.6026 40.0619 71.2756 39.786ZM74.4138 57.4382C74.3908 57.486 73.9275 58.3042 70.4502 58.9718C67.8112 59.4785 64.2798 59.7462 60.238 59.7462C56.1962 59.7462 52.6649 59.4785 50.0258 58.9718C46.463 58.2878 46.0642 57.4453 46.0623 57.4453V53.1069C47.2275 53.6527 48.5447 53.9272 49.2005 54.0635C52.018 54.6492 55.8348 54.9588 60.238 54.9588C64.6413 54.9588 68.4581 54.6492 71.2756 54.0635C71.9312 53.9272 73.2486 53.6527 74.4138 53.1069V57.4382ZM29.2888 57.668C28.6738 57.668 28.1755 58.1663 28.1755 58.7812V61.6016H11.2537C10.6734 61.6016 10.2888 61.1263 10.2888 60.9336V49.875H28.1755V53.5859C28.1755 54.2009 28.6738 54.6992 29.2888 54.6992C29.9038 54.6992 30.4021 54.2009 30.4021 53.5859V49.875H43.8357V61.6016H30.4021V58.7812C30.4021 58.1663 29.9038 57.668 29.2888 57.668ZM48.2888 39.9894C46.5818 40.408 43.8357 41.3422 43.8357 43.418V47.6484H30.4021V35.9219H47.324C47.856 35.9219 48.2888 36.3547 48.2888 36.8867V39.9894ZM28.1755 47.6484H10.2888V37.1836C10.2888 36.4289 10.6765 35.9219 11.2537 35.9219H28.1755V47.6484ZM74.4138 50.4245C74.3908 50.4723 73.9275 51.2905 70.4502 51.9582C67.8112 52.4648 64.2798 52.7326 60.238 52.7326C56.1962 52.7326 52.6649 52.4648 50.0258 51.9582C46.463 51.2742 46.0642 50.4316 46.0623 50.4316V46.0933C47.2275 46.6391 48.5447 46.9135 49.2005 47.0498C52.018 47.6357 55.8348 47.9453 60.238 47.9453C64.6413 47.9453 68.4581 47.6357 71.2756 47.0499C71.9312 46.9137 73.2486 46.6392 74.4138 46.0934V50.4245ZM70.4502 41.8916C73.8082 42.5363 74.3556 43.3218 74.4101 43.418C74.3556 43.5142 73.8082 44.2997 70.4502 44.9444C67.8112 45.451 64.2798 45.7188 60.238 45.7188C56.1962 45.7188 52.6649 45.451 50.0258 44.9444C46.6679 44.2997 46.1204 43.5142 46.066 43.418C46.1204 43.3218 46.6679 42.5363 50.0258 41.8916C52.6649 41.385 56.1962 41.1172 60.238 41.1172C64.2798 41.1172 67.8112 41.385 70.4502 41.8916ZM4.72241 67.5391C3.6504 67.5391 2.86694 66.6536 2.86694 66.2773V29.9844H39.531C40.146 29.9844 40.6443 29.4861 40.6443 28.8711C40.6443 28.2561 40.146 27.7578 39.531 27.7578H2.86694V4.67578C2.86694 3.18799 3.59518 2.22656 4.72241 2.22656H51.0349C52.0581 2.22656 52.8904 3.05885 52.8904 4.08203V27.7578H44.7263C44.1113 27.7578 43.613 28.2561 43.613 28.8711C43.613 29.4861 44.1113 29.9844 44.7263 29.9844H52.8904V39.2332C52.0487 39.3209 51.2559 39.4253 50.5154 39.5454V36.8867C50.5154 35.127 49.0837 33.6953 47.324 33.6953H11.2537C9.43426 33.6953 8.06226 35.195 8.06226 37.1836V60.9336C8.06226 62.4756 9.55361 63.8281 11.2537 63.8281H43.8357V67.5391H4.72241ZM70.4502 72.999C67.8112 73.5057 64.2798 73.7734 60.238 73.7734C56.1962 73.7734 52.6649 73.5057 50.0258 72.999C46.463 72.3152 46.0642 71.4727 46.0623 71.4727V67.1343C47.2275 67.6801 48.5447 67.9545 49.2005 68.0908C52.018 68.6765 55.8348 68.9862 60.238 68.9862C62.3597 68.9862 64.3693 68.9127 66.2112 68.7675C66.8241 68.7193 67.2818 68.1833 67.2336 67.5704C67.1854 66.9575 66.6479 66.4996 66.0365 66.5479C64.2525 66.6884 62.3018 66.7596 60.238 66.7596C56.1962 66.7596 52.6649 66.4918 50.0258 65.9852C46.463 65.3015 46.0642 64.459 46.0623 64.459V60.1206C47.2275 60.6664 48.5447 60.9409 49.2005 61.0771C52.018 61.6629 55.8348 61.9725 60.238 61.9725C64.6413 61.9725 68.4581 61.6629 71.2756 61.0771C71.9312 60.9409 73.2486 60.6664 74.4138 60.1206V64.4517C74.391 64.4992 73.981 65.2239 71.0343 65.8659C70.4336 65.9968 70.0527 66.59 70.1836 67.1907C70.3119 67.7957 70.923 68.1739 71.5085 68.0414C72.1176 67.9087 73.3237 67.645 74.4138 67.1352V71.4654C74.3908 71.5133 73.9275 72.3314 70.4502 72.999Z" fill="black"/>
<path d="M50.6638 20.8555V9.12891C50.6638 7.36918 49.2321 5.9375 47.4724 5.9375H22.906C22.291 5.9375 21.7927 6.4358 21.7927 7.05078C21.7927 7.66576 22.291 8.16406 22.906 8.16406H47.4724C48.0044 8.16406 48.4373 8.59691 48.4373 9.12891V20.8555C48.4373 21.3875 48.0044 21.8203 47.4724 21.8203H11.2537C10.7217 21.8203 10.2888 21.3875 10.2888 20.8555V9.12891C10.2888 8.59691 10.7217 8.16406 11.2537 8.16406H17.7107C18.3257 8.16406 18.824 7.66576 18.824 7.05078C18.824 6.4358 18.3257 5.9375 17.7107 5.9375H11.2537C9.49394 5.9375 8.06226 7.36918 8.06226 9.12891V20.8555C8.06226 22.6152 9.49394 24.0469 11.2537 24.0469H47.4724C49.2321 24.0469 50.6638 22.6152 50.6638 20.8555Z" fill="black"/>
<path d="M24.0193 54.625H16.0037C15.3887 54.625 14.8904 55.1233 14.8904 55.7383C14.8904 56.3533 15.3887 56.8516 16.0037 56.8516H24.0193C24.6343 56.8516 25.1326 56.3533 25.1326 55.7383C25.1326 55.1233 24.6343 54.625 24.0193 54.625Z" fill="black"/>
<path d="M16.7458 42.8984H18.8982V45.0508C18.8982 45.6658 19.3965 46.1641 20.0115 46.1641C20.6265 46.1641 21.1248 45.6658 21.1248 45.0508V42.8984H23.2771C23.8921 42.8984 24.3904 42.4001 24.3904 41.7852C24.3904 41.1702 23.8921 40.6719 23.2771 40.6719H21.1248V38.5195C21.1248 37.9046 20.6265 37.4062 20.0115 37.4062C19.3965 37.4062 18.8982 37.9046 18.8982 38.5195V40.6719H16.7458C16.1309 40.6719 15.6326 41.1702 15.6326 41.7852C15.6326 42.4001 16.1309 42.8984 16.7458 42.8984Z" fill="black"/>
<path d="M41.7369 38.6888C41.3019 38.2541 40.5972 38.2541 40.1624 38.6888L38.6404 40.2107L37.1185 38.6888C36.6836 38.2541 35.9788 38.2541 35.544 38.6888C35.1093 39.1237 35.1093 39.8285 35.544 40.2632L37.066 41.7852L35.544 43.3071C35.1093 43.742 35.1093 44.4468 35.544 44.8816C35.979 45.3162 36.6836 45.3162 37.1185 44.8816L38.6404 43.3596L40.1624 44.8816C40.5973 45.3162 41.3019 45.3162 41.7369 44.8816C42.1716 44.4466 42.1716 43.7419 41.7369 43.3071L40.2149 41.7852L41.7369 40.2632C42.1716 39.8283 42.1716 39.1235 41.7369 38.6888Z" fill="black"/>
<path d="M36.1386 59.3967C36.4235 59.3967 36.7085 59.2881 36.9259 59.0707L41.9728 54.0239C42.4076 53.5889 42.4076 52.8842 41.9728 52.4494C41.5379 52.0148 40.8331 52.0148 40.3983 52.4494L35.3514 57.4963C34.9167 57.9312 34.9167 58.636 35.3514 59.0707C35.5689 59.2881 35.8539 59.3967 36.1386 59.3967Z" fill="black"/>
<path d="M36.488 54.0312C37.1029 54.0312 37.6013 53.5328 37.6013 52.918C37.6013 52.3031 37.1029 51.8047 36.488 51.8047C35.8732 51.8047 35.3748 52.3031 35.3748 52.918C35.3748 53.5328 35.8732 54.0312 36.488 54.0312Z" fill="black"/>
<path d="M40.9412 59.6719C41.556 59.6719 42.0544 59.1734 42.0544 58.5586C42.0544 57.9437 41.556 57.4453 40.9412 57.4453C40.3263 57.4453 39.8279 57.9437 39.8279 58.5586C39.8279 59.1734 40.3263 59.6719 40.9412 59.6719Z" fill="black"/>
<path d="M43.7615 19.7422C45.1937 19.7422 46.3591 18.5768 46.3591 17.1445V12.8398C46.3591 11.4076 45.1937 10.2422 43.7615 10.2422H41.6833C40.2511 10.2422 39.0857 11.4076 39.0857 12.8398V17.1445C39.0857 18.5768 40.2511 19.7422 41.6833 19.7422H43.7615ZM41.3123 17.1445V12.8398C41.3123 12.6351 41.4787 12.4688 41.6833 12.4688H43.7615C43.9662 12.4688 44.1326 12.6351 44.1326 12.8398V17.1445C44.1326 17.3492 43.9662 17.5156 43.7615 17.5156H41.6833C41.4787 17.5156 41.3123 17.3492 41.3123 17.1445Z" fill="black"/>
</g>
<defs>
<clipPath id="clip0">
<rect width="76" height="76" fill="white" transform="translate(0.640381)"/>
</clipPath>
</defs>
</svg>
