<svg width="39" height="38" viewBox="0 0 39 38" fill="none" xmlns="http://www.w3.org/2000/svg">
<circle cx="19.3077" cy="19" r="19" fill="white"/>
<path d="M19.308 8.77915C15.1175 8.77915 11.1382 8.40667 9.6183 12.3044C8.99047 13.9143 9.08164 16.005 9.08164 18.9986C9.08164 21.6256 8.9974 24.0945 9.6183 25.6917C11.1348 29.5917 15.1464 29.2181 19.3057 29.2181C23.3185 29.2181 27.4559 29.6355 28.9943 25.6917C29.6233 24.0657 29.531 22.0061 29.531 18.9986C29.531 15.0063 29.7514 12.429 27.8137 10.4939C25.8517 8.53352 23.1985 8.77915 19.3034 8.77915H19.308ZM18.3917 10.6208C27.1328 10.6069 28.2453 9.63596 27.6314 23.1247C27.4132 27.8954 23.7778 27.3718 19.3092 27.3718C11.1613 27.3718 10.927 27.1389 10.927 18.994C10.927 10.7545 11.5733 10.6254 18.3917 10.6185V10.6208ZM24.7669 12.3171C24.0894 12.3171 23.5401 12.866 23.5401 13.5429C23.5401 14.2198 24.0894 14.7688 24.7669 14.7688C25.4444 14.7688 25.9937 14.2198 25.9937 13.5429C25.9937 12.866 25.4444 12.3171 24.7669 12.3171ZM19.308 13.7505C16.4078 13.7505 14.0569 16.1007 14.0569 18.9986C14.0569 21.8966 16.4078 24.2456 19.308 24.2456C22.2083 24.2456 24.558 21.8966 24.558 18.9986C24.558 16.1007 22.2083 13.7505 19.308 13.7505ZM19.308 15.5921C23.8148 15.5921 23.8205 22.4051 19.308 22.4051C14.8025 22.4051 14.7956 15.5921 19.308 15.5921Z" fill="#22223C"/>
</svg>
