<svg width="39" height="38" viewBox="0 0 39 38" fill="none" xmlns="http://www.w3.org/2000/svg">
<g clip-path="url(#clip0)">
<path d="M19.7692 0C9.27736 0 0.769165 8.50819 0.769165 19C0.769165 29.4918 9.27736 38 19.7692 38C30.261 38 38.7692 29.4918 38.7692 19C38.7692 8.50819 30.261 0 19.7692 0ZM14.248 28.7227H9.62062V14.8011H14.248V28.7227ZM11.9344 12.9001H11.9043C10.3515 12.9001 9.34723 11.8312 9.34723 10.4953C9.34723 9.1292 10.3822 8.08984 11.9652 8.08984C13.5481 8.08984 14.5222 9.1292 14.5524 10.4953C14.5524 11.8312 13.5481 12.9001 11.9344 12.9001ZM30.9333 28.7227H26.3065V21.275C26.3065 19.4033 25.6365 18.1268 23.9622 18.1268C22.684 18.1268 21.9227 18.9878 21.5881 19.819C21.4658 20.1165 21.4359 20.5322 21.4359 20.9482V28.7227H16.8088C16.8088 28.7227 16.8694 16.1072 16.8088 14.8011H21.4359V16.7723C22.0508 15.8237 23.151 14.4744 25.6061 14.4744C28.6505 14.4744 30.9333 16.4641 30.9333 20.7401V28.7227Z" fill="white"/>
</g>
<defs>
<clipPath id="clip0">
<rect width="38" height="38" fill="white" transform="translate(0.769165)"/>
</clipPath>
</defs>
</svg>
