<svg width="25" height="25" viewBox="0 0 25 25" fill="none" xmlns="http://www.w3.org/2000/svg">
<path d="M13.1578 9.53687C13.1578 9.18564 12.8633 8.90088 12.5 8.90088C12.1367 8.90088 11.8422 9.18564 11.8422 9.53687C11.8422 9.88809 12.1367 10.1729 12.5 10.1729C12.8633 10.1729 13.1578 9.88809 13.1578 9.53687Z" fill="#4D4E62"/>
<path d="M12.5 6.35791C9.95768 6.36034 7.89747 8.21848 7.89478 10.5114C7.89478 13.1506 11.3997 16.7418 12.5 17.8022C13.5998 16.7418 17.1052 13.1482 17.1052 10.5114C17.1025 8.21848 15.0423 6.36034 12.5 6.35791ZM12.5 11.3422C11.4827 11.3422 10.6579 10.5983 10.6579 9.68074C10.6579 8.76323 11.4827 8.01933 12.5 8.01933C13.5173 8.01933 14.3421 8.76323 14.3421 9.68074C14.3421 10.5983 13.5173 11.3422 12.5 11.3422Z" fill="#4D4E62"/>
<path d="M12.5 0C5.59649 0 0 5.40859 0 12.0803C0 18.7521 5.59649 24.1606 12.5 24.1606C19.4035 24.1606 25 18.7521 25 12.0803C24.9922 5.41175 19.4002 0.00758391 12.5 0ZM12.8156 18.857C12.6413 19.0253 12.3587 19.0253 12.1844 18.857C11.9786 18.6581 7.14286 13.9432 7.14286 10.3546C7.14286 7.49522 9.54132 5.17728 12.5 5.17728C15.4587 5.17728 17.8571 7.49522 17.8571 10.3546C17.8571 13.9432 13.0214 18.6581 12.8156 18.857Z" fill="#4D4E62"/>
</svg>
