<?xml version="1.0" encoding="utf-8"?>
<!-- Generator: Adobe Illustrator 24.1.1, SVG Export Plug-In . SVG Version: 6.00 Build 0)  -->
<svg version="1.1" id="Слой_1" xmlns="http://www.w3.org/2000/svg" xmlns:xlink="http://www.w3.org/1999/xlink" x="0px" y="0px"
	 viewBox="0 0 240 600" style="enable-background:new 0 0 240 600;" xml:space="preserve">
<style type="text/css">
	.st0{clip-path:url(#SVGID_2_);}
	.st1{clip-path:url(#SVGID_4_);}
	.st2{fill:#FFFFFF;}
	.st3{fill:#0F4378;fill-opacity:0.1;}
	.st4{clip-path:url(#SVGID_6_);}
</style>
<g>
	<defs>
		<rect id="SVGID_1_" x="1.4" y="0" width="238.6" height="600"/>
	</defs>
	<clipPath id="SVGID_2_">
		<use xlink:href="#SVGID_1_"  style="overflow:visible;"/>
	</clipPath>
	<g class="st0">
		<defs>
			<rect id="SVGID_3_" x="1.5" y="0" width="412.4" height="299.9"/>
		</defs>
		<clipPath id="SVGID_4_">
			<use xlink:href="#SVGID_3_"  style="overflow:visible;"/>
		</clipPath>
		<g class="st1">
			<path class="st2" d="M414,0H1.5v299.9H414V0z"/>
			<path class="st3" d="M400.4,308.9l26.6-26.7l3.9,3.9l-26.7,26.6L400.4,308.9z"/>
			<path class="st3" d="M386.3,309L427,268l3.9,3.9l-40.9,40.6L386.3,309z"/>
			<path class="st3" d="M372.1,309l54.9-55.2l3.9,4l-55.2,54.8L372.1,309z"/>
			<path class="st3" d="M357.9,309.1l69-69.5l3.9,3.9l-69.5,69L357.9,309.1z"/>
			<path class="st3" d="M343.8,309.1l83.2-83.7l3.9,4l-83.7,83.1L343.8,309.1z"/>
			<path class="st3" d="M329.6,309.2l97.4-98l3.9,3.9l-98,97.4L329.6,309.2z"/>
			<path class="st3" d="M315.5,309.2L427,196.9l3.9,4L318.6,312.3L315.5,309.2z"/>
			<path class="st3" d="M301.3,309.3L427,182.8l3.9,3.9L304.3,312.3L301.3,309.3z"/>
			<path class="st3" d="M287.1,309.3L427,168.5l3.9,4L290,312.2L287.1,309.3z"/>
			<path class="st3" d="M273,309.4l154-155.1l3.9,3.9l-155.1,154L273,309.4z"/>
			<path class="st3" d="M258.8,309.4L427,140.2l3.9,3.9L261.5,312.1L258.8,309.4z"/>
			<path class="st3" d="M244.6,309.5L427,125.9l3.9,3.9L247.2,312.1L244.6,309.5z"/>
			<path class="st3" d="M230.5,309.5L427,111.7l3.9,3.9L233,312L230.5,309.5z"/>
			<path class="st3" d="M216.3,309.5L427,97.5l3.9,3.9L218.7,312L216.3,309.5z"/>
			<path class="st3" d="M202.1,309.6L427,83.3l3.9,3.9L204.4,311.9L202.1,309.6z"/>
			<path class="st3" d="M188,309.6L427,69l3.9,3.9l-240.6,239L188,309.6z"/>
			<path class="st3" d="M173.8,309.7L427,54.9l3.9,3.9L176,311.8L173.8,309.7z"/>
			<path class="st3" d="M159.6,309.7L427,40.6l3.9,3.9L161.7,311.8L159.6,309.7z"/>
			<path class="st3" d="M145.5,309.8L427,26.4l3.9,3.9L147.5,311.8L145.5,309.8z"/>
			<path class="st3" d="M131.3,309.8L427,12.2l3.9,3.9L133.2,311.7L131.3,309.8z"/>
			<path class="st3" d="M117.2,309.9L427-2l3.9,3.9L118.9,311.7L117.2,309.9z"/>
			<path class="st3" d="M103,309.9L423.6-12.8l3.9,3.9L104.7,311.6L103,309.9z"/>
			<path class="st3" d="M88.8,310L409.3-12.7l3.9,3.7L90.4,311.6L88.8,310z"/>
			<path class="st3" d="M74.7,310L395.2-12.7l3.6,3.6L76.1,311.5L74.7,310z"/>
			<path class="st3" d="M60.5,310.1L381.1-12.6l3.5,3.5L61.9,311.5L60.5,310.1z"/>
			<path class="st3" d="M46.3,310.1L366.9-12.6l3.4,3.4L47.6,311.4L46.3,310.1z"/>
			<path class="st3" d="M32.2,310.2L352.6-12.5l3.4,3.3L33.3,311.4L32.2,310.2z"/>
			<path class="st3" d="M18,310.2L338.5-12.5l3.3,3.3L19,311.3L18,310.2z"/>
			<path class="st3" d="M3.8,310.2L324.3-12.4l3.2,3.1L4.8,311.3L3.8,310.2z"/>
			<path class="st3" d="M-10.3,310.3L310.1-12.4l3.1,3.1L-9.5,311.1L-10.3,310.3z"/>
			<path class="st3" d="M-13.8,299.6L296-12.4l3,3L-12.9,300.4L-13.8,299.6z"/>
			<path class="st3" d="M-13.8,285.3L281.8-12.3l2.9,2.9L-12.9,286.2L-13.8,285.3z"/>
			<path class="st3" d="M-13.8,271.2L267.6-12.3l2.8,2.8L-12.9,272L-13.8,271.2z"/>
			<path class="st3" d="M-13.8,256.9L253.5-12.2l2.7,2.7L-12.9,257.8L-13.8,256.9z"/>
			<path class="st3" d="M-13.8,242.7L239.3-12.2l2.6,2.6L-12.9,243.6L-13.8,242.7z"/>
			<path class="st3" d="M-13.8,228.5L225.2-12.1l2.5,2.5l-240.6,239L-13.8,228.5z"/>
			<path class="st3" d="M-13.8,214.3L211-12.1l2.4,2.4L-12.9,215.1L-13.8,214.3z"/>
			<path class="st3" d="M-13.8,200L196.8-12l2.3,2.3L-12.9,201L-13.8,200z"/>
			<path class="st3" d="M-13.8,185.9L182.7-12l2.2,2.2L-12.9,186.7L-13.8,185.9z"/>
			<path class="st3" d="M-13.8,171.6L168.5-11.9l2.1,2.1L-12.9,172.5L-13.8,171.6z"/>
			<path class="st3" d="M-13.8,157.4L154.3-11.9l2.1,2L-12.9,158.3L-13.8,157.4z"/>
			<path class="st3" d="M-13.8,143.2L140.2-11.8l2,1.9l-155.1,154L-13.8,143.2z"/>
			<path class="st3" d="M-13.8,129L126-11.8l1.9,1.9L-12.9,129.9L-13.8,129z"/>
			<path class="st3" d="M-13.8,114.8L111.8-11.7l1.8,1.7L-12.9,115.7L-13.8,114.8z"/>
			<path class="st3" d="M-13.8,100.6L97.7-11.7l1.7,1.7L-12.9,101.4L-13.8,100.6z"/>
			<path class="st3" d="M-13.8,86.3l97.3-97.9l1.6,1.5l-98,97.4L-13.8,86.3z"/>
			<path class="st3" d="M-13.8,72.2l83.1-83.7l1.5,1.5L-12.9,73L-13.8,72.2z"/>
			<path class="st3" d="M-13.8,57.9l68.9-69.5l1.4,1.4l-69.5,69L-13.8,57.9z"/>
			<path class="st3" d="M-13.8,43.7L41-11.5l1.3,1.2l-55.2,54.8L-13.8,43.7z"/>
			<path class="st3" d="M-13.8,29.5l40.6-40.9l1.1,1.1l-40.9,40.7L-13.8,29.5z"/>
			<path class="st3" d="M-13.8,15.3l26.5-26.7l1,1l-26.7,26.4L-13.8,15.3z"/>
		</g>
	</g>
	<g class="st0">
		<defs>
			<rect id="SVGID_5_" y="299.9" width="412.4" height="299.9"/>
		</defs>
		<clipPath id="SVGID_6_">
			<use xlink:href="#SVGID_5_"  style="overflow:visible;"/>
		</clipPath>
		<g class="st4">
			<path class="st2" d="M412.4,299.9H0v299.9h412.4V299.9z"/>
			<path class="st3" d="M398.9,608.8l26.6-26.7l3.9,3.8l-26.7,26.6L398.9,608.8z"/>
			<path class="st3" d="M384.7,608.9l40.7-40.9l3.9,3.9l-40.9,40.6L384.7,608.9z"/>
			<path class="st3" d="M370.6,608.9l54.9-55.2l3.9,4l-55.2,54.8L370.6,608.9z"/>
			<path class="st3" d="M356.4,609l69-69.5l3.9,3.9l-69.5,69L356.4,609z"/>
			<path class="st3" d="M342.2,609l83.2-83.7l3.9,4l-83.7,83.1L342.2,609z"/>
			<path class="st3" d="M328.1,609.1l97.4-98l3.9,3.9l-98,97.4L328.1,609.1z"/>
			<path class="st3" d="M313.9,609.1l111.5-112.3l3.9,4L317,612.2L313.9,609.1z"/>
			<path class="st3" d="M299.7,609.2l125.7-126.5l3.9,3.9L302.8,612.2L299.7,609.2z"/>
			<path class="st3" d="M285.6,609.2l139.9-140.8l3.9,4L288.5,612.1L285.6,609.2z"/>
			<path class="st3" d="M271.4,609.3l154-155.1l3.9,3.9l-155.1,154L271.4,609.3z"/>
			<path class="st3" d="M257.2,609.3l168.2-169.2l3.9,3.9L260,612L257.2,609.3z"/>
			<path class="st3" d="M243.1,609.4l182.4-183.6l3.9,3.9L245.7,612L243.1,609.4z"/>
			<path class="st3" d="M228.9,609.4l196.5-197.7l3.9,3.9L231.4,611.9L228.9,609.4z"/>
			<path class="st3" d="M214.8,609.4l210.7-212l3.9,3.9L217.1,611.9L214.8,609.4z"/>
			<path class="st3" d="M200.6,609.5l224.9-226.3l3.9,3.9L202.9,611.8L200.6,609.5z"/>
			<path class="st3" d="M186.4,609.5l239-240.5l3.9,3.9l-240.6,239L186.4,609.5z"/>
			<path class="st3" d="M172.3,609.6l253.2-254.8l3.9,3.9l-254.9,253L172.3,609.6z"/>
			<path class="st3" d="M158.1,609.6l267.3-269.1l3.9,3.9L160.2,611.7L158.1,609.6z"/>
			<path class="st3" d="M143.9,609.7l281.5-283.3l3.9,3.9L145.9,611.7L143.9,609.7z"/>
			<path class="st3" d="M129.8,609.7l295.7-297.6l3.9,3.9L131.6,611.6L129.8,609.7z"/>
			<path class="st3" d="M115.6,609.8l309.8-311.9l3.9,3.9L117.4,611.6L115.6,609.8z"/>
			<path class="st3" d="M101.4,609.8L422,287.1l3.9,3.9L103.1,611.5L101.4,609.8z"/>
			<path class="st3" d="M87.3,609.9l320.5-322.7l3.9,3.7L88.8,611.5L87.3,609.9z"/>
			<path class="st3" d="M73.1,609.9l320.6-322.7l3.6,3.6L74.6,611.4L73.1,609.9z"/>
			<path class="st3" d="M58.9,610l320.6-322.7l3.5,3.5L60.3,611.4L58.9,610z"/>
			<path class="st3" d="M44.8,610l320.6-322.7l3.4,3.4L46,611.3L44.8,610z"/>
			<path class="st3" d="M30.6,610.1l320.5-322.7l3.4,3.3L31.8,611.3L30.6,610.1z"/>
			<path class="st3" d="M16.5,610.1l320.5-322.7l3.3,3.3L17.5,611.2L16.5,610.1z"/>
			<path class="st3" d="M2.3,610.1l320.5-322.6l3.2,3.1L3.2,611.2L2.3,610.1z"/>
			<path class="st3" d="M-11.9,610.2l320.5-322.7l3.1,3.1L-11,611L-11.9,610.2z"/>
			<path class="st3" d="M-15.3,599.5l309.7-312l3,3L-14.5,600.3L-15.3,599.5z"/>
			<path class="st3" d="M-15.3,585.2l295.6-297.6l2.9,2.9L-14.5,586.1L-15.3,585.2z"/>
			<path class="st3" d="M-15.3,571.1l281.4-283.4l2.8,2.8L-14.5,571.9L-15.3,571.1z"/>
			<path class="st3" d="M-15.3,556.8l267.2-269.1l2.7,2.7L-14.5,557.7L-15.3,556.8z"/>
			<path class="st3" d="M-15.3,542.6l253.1-254.9l2.6,2.6L-14.5,543.5L-15.3,542.6z"/>
			<path class="st3" d="M-15.3,528.4l238.9-240.5l2.5,2.5l-240.6,239L-15.3,528.4z"/>
			<path class="st3" d="M-15.3,514.2l224.8-226.4l2.4,2.4L-14.5,515L-15.3,514.2z"/>
			<path class="st3" d="M-15.3,499.9l210.6-212l2.3,2.3l-212,210.7L-15.3,499.9z"/>
			<path class="st3" d="M-15.3,485.8l196.4-197.9l2.2,2.2L-14.5,486.6L-15.3,485.8z"/>
			<path class="st3" d="M-15.3,471.5L167,288l2.1,2.1L-14.5,472.4L-15.3,471.5z"/>
			<path class="st3" d="M-15.3,457.3L152.8,288l2.1,2L-14.5,458.2L-15.3,457.3z"/>
			<path class="st3" d="M-15.3,443.1l153.9-154.9l2,1.9L-14.5,444L-15.3,443.1z"/>
			<path class="st3" d="M-15.3,428.9l139.8-140.8l1.9,1.9L-14.5,429.8L-15.3,428.9z"/>
			<path class="st3" d="M-15.3,414.7l125.6-126.4l1.8,1.7L-14.5,415.6L-15.3,414.7z"/>
			<path class="st3" d="M-15.3,400.5L96.1,288.2l1.7,1.7L-14.5,401.3L-15.3,400.5z"/>
			<path class="st3" d="M-15.3,386.2L82,288.3l1.6,1.5l-98,97.4L-15.3,386.2z"/>
			<path class="st3" d="M-15.3,372.1l83.1-83.7l1.5,1.5l-83.7,83.1L-15.3,372.1z"/>
			<path class="st3" d="M-15.3,357.8l68.9-69.5l1.4,1.4l-69.5,69L-15.3,357.8z"/>
			<path class="st3" d="M-15.3,343.6l54.8-55.2l1.2,1.2l-55.2,54.8L-15.3,343.6z"/>
			<path class="st3" d="M-15.3,329.4l40.6-40.9l1.1,1.1l-40.9,40.7L-15.3,329.4z"/>
			<path class="st3" d="M-15.3,315.2l26.5-26.7l1,1L-14.5,316L-15.3,315.2z"/>
		</g>
	</g>
</g>
</svg>
