<?xml version="1.0" encoding="utf-8"?>
<!-- Generator: Adobe Illustrator 24.1.1, SVG Export Plug-In . SVG Version: 6.00 Build 0)  -->
<svg version="1.1" id="Слой_1" xmlns="http://www.w3.org/2000/svg" xmlns:xlink="http://www.w3.org/1999/xlink" x="0px" y="0px"
	 viewBox="0 0 1920 1164" style="enable-background:new 0 0 1920 1164;" xml:space="preserve">
<style type="text/css">
	.st0{clip-path:url(#SVGID_2_);}
	.st1{fill:#FFFFFF;}
	.st2{fill:#004279;fill-opacity:0.1;}
	.st3{clip-path:url(#SVGID_4_);}
	.st4{clip-path:url(#SVGID_6_);}
	.st5{clip-path:url(#SVGID_8_);}
</style>
<g>
	<defs>
		<rect id="SVGID_1_" x="1097.3" y="-1.2" width="827.9" height="582"/>
	</defs>
	<clipPath id="SVGID_2_">
		<use xlink:href="#SVGID_1_"  style="overflow:visible;"/>
	</clipPath>
	<g class="st0">
		<path class="st1" d="M1897.7-1.2h-800.4v582h800.4V-1.2z"/>
		<path class="st2" d="M1871.4,598.1l51.5-51.7l7.5,7.5l-51.7,51.5L1871.4,598.1z"/>
		<path class="st2" d="M1843.9,598.3l79-79.4l7.5,7.5l-79.4,78.8L1843.9,598.3z"/>
		<path class="st2" d="M1816.5,598.3L1923,491.2l7.5,7.7l-107.1,106.3L1816.5,598.3z"/>
		<path class="st2" d="M1789,598.5l134-134.8l7.5,7.5l-134.8,134L1789,598.5z"/>
		<path class="st2" d="M1761.5,598.5L1923,436.1l7.5,7.7L1767.9,605L1761.5,598.5z"/>
		<path class="st2" d="M1734,598.8l189-190.2l7.5,7.5L1740.3,605L1734,598.8z"/>
		<path class="st2" d="M1706.5,598.8L1923,380.9l7.5,7.7l-217.9,216.2L1706.5,598.8z"/>
		<path class="st2" d="M1679,599L1923,353.4l7.5,7.5l-245.6,243.9L1679,599z"/>
		<path class="st2" d="M1651.5,599L1923,325.7l7.5,7.7l-273.3,271.2L1651.5,599z"/>
		<path class="st2" d="M1624,599.2L1923,298.3l7.5,7.5l-301,298.9L1624,599.2z"/>
		<path class="st2" d="M1596.6,599.2L1923,270.8l7.5,7.5l-328.6,326.2L1596.6,599.2z"/>
		<path class="st2" d="M1569.1,599.4L1923,243.1l7.5,7.5l-356.3,353.8L1569.1,599.4z"/>
		<path class="st2" d="M1541.6,599.4L1923,215.6l7.5,7.5l-384,381.1L1541.6,599.4z"/>
		<path class="st2" d="M1514.1,599.4L1923,187.9l7.5,7.5l-411.7,408.8L1514.1,599.4z"/>
		<path class="st2" d="M1486.6,599.6L1923,160.4l7.5,7.5L1491,604L1486.6,599.6z"/>
		<path class="st2" d="M1459.1,599.6L1923,132.7l7.5,7.5L1463.6,604L1459.1,599.6z"/>
		<path class="st2" d="M1431.6,599.8L1923,105.3l7.5,7.5l-494.6,491.1L1431.6,599.8z"/>
		<path class="st2" d="M1404.1,599.8L1923,77.6l7.5,7.5l-522.3,518.7L1404.1,599.8z"/>
		<path class="st2" d="M1376.7,600L1923,50.1l7.5,7.5l-550,546.2L1376.7,600z"/>
		<path class="st2" d="M1349.2,600L1923,22.4l7.5,7.5l-577.6,573.7L1349.2,600z"/>
		<path class="st2" d="M1321.7,600.2L1923-5.1l7.5,7.5l-605.3,601.2L1321.7,600.2z"/>
		<path class="st2" d="M1294.2,600.2l622.1-626.3l7.5,7.5l-626.3,622L1294.2,600.2z"/>
		<path class="st2" d="M1266.7,600.4l621.9-626.3l7.5,7.3l-626.3,622L1266.7,600.4z"/>
		<path class="st2" d="M1239.2,600.4l622.1-626.3l7.1,7.1l-626.3,622L1239.2,600.4z"/>
		<path class="st2" d="M1211.7,600.6l622.1-626.3l6.9,6.9l-626.4,622L1211.7,600.6z"/>
		<path class="st2" d="M1184.2,600.6l622.1-626.3l6.7,6.7l-626.3,622L1184.2,600.6z"/>
		<path class="st2" d="M1156.7,600.8l621.9-626.3l6.7,6.5L1159,603L1156.7,600.8z"/>
		<path class="st2" d="M1129.3,600.8l621.9-626.3l6.5,6.5l-626.3,621.8L1129.3,600.8z"/>
		<path class="st2" d="M1101.8,600.8l621.9-626.1l6.3,6.1l-626.4,622L1101.8,600.8z"/>
		<path class="st2" d="M1074.3,601l621.9-626.3l6.1,6.1l-626.3,621.8L1074.3,601z"/>
		<path class="st2" d="M1067.6,580.2l601.1-605.4l5.9,5.9l-605.3,601.2L1067.6,580.2z"/>
		<path class="st2" d="M1067.6,552.5l573.6-577.6l5.7,5.7l-577.6,573.5L1067.6,552.5z"/>
		<path class="st2" d="M1067.6,525l546.1-550.1l5.5,5.5l-550,546.2L1067.6,525z"/>
		<path class="st2" d="M1067.6,497.3l518.6-522.2l5.3,5.3l-522.3,518.7L1067.6,497.3z"/>
		<path class="st2" d="M1067.6,469.8l491.1-494.7l5.1,5.1l-494.6,491.3L1067.6,469.8z"/>
		<path class="st2" d="M1067.6,442.1l463.7-466.8l4.8,4.9L1069.2,444L1067.6,442.1z"/>
		<path class="st2" d="M1067.6,414.7l436.2-439.3l4.6,4.6l-439.2,436.3L1067.6,414.7z"/>
		<path class="st2" d="M1067.6,387l408.7-411.4l4.4,4.4l-411.5,408.8L1067.6,387z"/>
		<path class="st2" d="M1067.6,359.5l381.2-384l4.3,4.2l-383.8,381.3L1067.6,359.5z"/>
		<path class="st2" d="M1067.6,331.8l353.7-356.1l4,4l-356.1,353.8L1067.6,331.8z"/>
		<path class="st2" d="M1067.6,304.3l326.2-328.6l4,3.8l-328.6,326.4L1067.6,304.3z"/>
		<path class="st2" d="M1067.6,276.6l298.7-300.7l3.8,3.6l-301,298.9L1067.6,276.6z"/>
		<path class="st2" d="M1067.6,249.1l271.2-273.2l3.6,3.6l-273.3,271.2L1067.6,249.1z"/>
		<path class="st2" d="M1067.6,221.5l243.8-245.3l3.4,3.2l-245.6,243.9L1067.6,221.5z"/>
		<path class="st2" d="M1067.6,194l216.3-217.8l3.2,3.2l-217.9,216.2L1067.6,194z"/>
		<path class="st2" d="M1067.6,166.3l188.8-190l3,2.8l-190.2,188.9L1067.6,166.3z"/>
		<path class="st2" d="M1067.6,138.8l161.3-162.5l2.8,2.8l-162.5,161.3L1067.6,138.8z"/>
		<path class="st2" d="M1067.6,111.1l133.8-134.8l2.6,2.6l-134.8,134L1067.6,111.1z"/>
		<path class="st2" d="M1067.6,83.6l106.3-107.1l2.4,2.4L1069.2,85.3L1067.6,83.6z"/>
		<path class="st2" d="M1067.6,56l78.8-79.4l2.2,2.2l-79.4,79L1067.6,56z"/>
		<path class="st2" d="M1067.6,28.5l51.3-51.7l2,2l-51.7,51.3L1067.6,28.5z"/>
	</g>
</g>
<g>
	<defs>
		<rect id="SVGID_3_" x="1094.3" y="580.8" width="828.1" height="582"/>
	</defs>
	<clipPath id="SVGID_4_">
		<use xlink:href="#SVGID_3_"  style="overflow:visible;"/>
	</clipPath>
	<g class="st3">
		<path class="st1" d="M1894.7,580.8h-800.4v582h800.4V580.8z"/>
		<path class="st2" d="M1868.4,1180.1l51.5-51.7l7.5,7.5l-51.8,51.5L1868.4,1180.1z"/>
		<path class="st2" d="M1840.9,1180.3l79-79.4l7.5,7.5l-79.4,78.8L1840.9,1180.3z"/>
		<path class="st2" d="M1813.4,1180.3l106.5-107.1l7.5,7.7l-107.1,106.3L1813.4,1180.3z"/>
		<path class="st2" d="M1786,1180.5l134-134.8l7.5,7.5l-134.8,134L1786,1180.5z"/>
		<path class="st2" d="M1758.5,1180.5l161.5-162.5l7.5,7.7L1764.9,1187L1758.5,1180.5z"/>
		<path class="st2" d="M1731,1180.8l189-190.2l7.5,7.5L1737.3,1187L1731,1180.8z"/>
		<path class="st2" d="M1703.5,1180.8L1920,962.9l7.5,7.7l-217.9,216.2L1703.5,1180.8z"/>
		<path class="st2" d="M1676,1181l244-245.5l7.5,7.5l-245.6,243.9L1676,1181z"/>
		<path class="st2" d="M1648.5,1181L1920,907.7l7.5,7.7l-273.3,271.2L1648.5,1181z"/>
		<path class="st2" d="M1621,1181.2L1920,880.3l7.5,7.5l-301,298.9L1621,1181.2z"/>
		<path class="st2" d="M1593.5,1181.2L1920,852.8l7.5,7.5l-328.6,326.2L1593.5,1181.2z"/>
		<path class="st2" d="M1566.1,1181.4L1920,825.1l7.5,7.5l-356.3,353.8L1566.1,1181.4z"/>
		<path class="st2" d="M1538.6,1181.4L1920,797.6l7.5,7.5l-384,381.1L1538.6,1181.4z"/>
		<path class="st2" d="M1511.1,1181.4L1920,769.9l7.5,7.5l-411.7,408.8L1511.1,1181.4z"/>
		<path class="st2" d="M1483.6,1181.6L1920,742.4l7.5,7.5L1488,1186L1483.6,1181.6z"/>
		<path class="st2" d="M1456.1,1181.6L1920,714.7l7.5,7.5L1460.6,1186L1456.1,1181.6z"/>
		<path class="st2" d="M1428.6,1181.8L1920,687.3l7.5,7.5l-494.6,491.1L1428.6,1181.8z"/>
		<path class="st2" d="M1401.1,1181.8L1920,659.6l7.5,7.5l-522.3,518.8L1401.1,1181.8z"/>
		<path class="st2" d="M1373.6,1182L1920,632.1l7.5,7.5l-550,546.2L1373.6,1182z"/>
		<path class="st2" d="M1346.2,1182L1920,604.4l7.5,7.5l-577.7,573.7L1346.2,1182z"/>
		<path class="st2" d="M1318.7,1182.2L1920,576.9l7.5,7.5l-605.3,601.2L1318.7,1182.2z"/>
		<path class="st2" d="M1291.2,1182.2l622.1-626.3l7.5,7.5l-626.4,622L1291.2,1182.2z"/>
		<path class="st2" d="M1263.7,1182.4l621.9-626.3l7.5,7.3l-626.4,622L1263.7,1182.4z"/>
		<path class="st2" d="M1236.2,1182.4l622.1-626.3l7.1,7.1l-626.4,622L1236.2,1182.4z"/>
		<path class="st2" d="M1208.7,1182.6l622.1-626.3l6.9,6.9l-626.4,622L1208.7,1182.6z"/>
		<path class="st2" d="M1181.2,1182.6l622.1-626.3l6.7,6.7l-626.4,622L1181.2,1182.6z"/>
		<path class="st2" d="M1153.7,1182.8l621.9-626.3l6.7,6.5L1156,1185L1153.7,1182.8z"/>
		<path class="st2" d="M1126.3,1182.8l621.9-626.3l6.5,6.5l-626.4,621.8L1126.3,1182.8z"/>
		<path class="st2" d="M1098.8,1182.8l621.9-626.1l6.3,6.1l-626.4,622L1098.8,1182.8z"/>
		<path class="st2" d="M1071.3,1183l621.9-626.3l6.1,6.1l-626.4,621.8L1071.3,1183z"/>
		<path class="st2" d="M1064.6,1162.2l601.1-605.4l5.9,5.9l-605.3,601.2L1064.6,1162.2z"/>
		<path class="st2" d="M1064.6,1134.5l573.6-577.6l5.7,5.7l-577.7,573.5L1064.6,1134.5z"/>
		<path class="st2" d="M1064.6,1107l546.1-550.1l5.5,5.5l-550,546.2L1064.6,1107z"/>
		<path class="st2" d="M1064.6,1079.3l518.6-522.2l5.3,5.3l-522.3,518.8L1064.6,1079.3z"/>
		<path class="st2" d="M1064.6,1051.8l491.1-494.7l5.1,5.1l-494.6,491.3L1064.6,1051.8z"/>
		<path class="st2" d="M1064.6,1024.1l463.7-466.8l4.8,4.9L1066.2,1026L1064.6,1024.1z"/>
		<path class="st2" d="M1064.6,996.7l436.2-439.3l4.7,4.6l-439.2,436.3L1064.6,996.7z"/>
		<path class="st2" d="M1064.6,969l408.7-411.4l4.4,4.4l-411.5,408.8L1064.6,969z"/>
		<path class="st2" d="M1064.6,941.5l381.2-384l4.2,4.2l-383.8,381.3L1064.6,941.5z"/>
		<path class="st2" d="M1064.6,913.8l353.7-356.1l4,4l-356.1,353.8L1064.6,913.8z"/>
		<path class="st2" d="M1064.6,886.3l326.2-328.6l4,3.8l-328.6,326.4L1064.6,886.3z"/>
		<path class="st2" d="M1064.6,858.6l298.7-300.7l3.8,3.6l-301,298.9L1064.6,858.6z"/>
		<path class="st2" d="M1064.6,831.1l271.2-273.2l3.6,3.6l-273.3,271.2L1064.6,831.1z"/>
		<path class="st2" d="M1064.6,803.5l243.8-245.3l3.4,3.2l-245.6,243.9L1064.6,803.5z"/>
		<path class="st2" d="M1064.6,776l216.3-217.8l3.2,3.2l-217.9,216.2L1064.6,776z"/>
		<path class="st2" d="M1064.6,748.3l188.8-190l3,2.8l-190.2,188.9L1064.6,748.3z"/>
		<path class="st2" d="M1064.6,720.8l161.3-162.5l2.8,2.8l-162.5,161.3L1064.6,720.8z"/>
		<path class="st2" d="M1064.6,693.1l133.8-134.8l2.6,2.6l-134.8,134L1064.6,693.1z"/>
		<path class="st2" d="M1064.6,665.6l106.3-107.1l2.4,2.4l-107.1,106.3L1064.6,665.6z"/>
		<path class="st2" d="M1064.6,638l78.8-79.4l2.2,2.2l-79.4,79L1064.6,638z"/>
		<path class="st2" d="M1064.6,610.5l51.3-51.7l2,2l-51.8,51.3L1064.6,610.5z"/>
	</g>
</g>
<g>
	<defs>
		<rect id="SVGID_5_" x="3" width="800.4" height="582"/>
	</defs>
	<clipPath id="SVGID_6_">
		<use xlink:href="#SVGID_5_"  style="overflow:visible;"/>
	</clipPath>
	<g class="st4">
		<path class="st1" d="M803.4,0H3v582h800.4V0z"/>
		<path class="st2" d="M777.1,599.4l51.5-51.7l7.5,7.5l-51.7,51.5L777.1,599.4z"/>
		<path class="st2" d="M749.6,599.6l79-79.4l7.5,7.5l-79.4,78.8L749.6,599.6z"/>
		<path class="st2" d="M722.1,599.6l106.5-107.1l7.5,7.7L729,606.5L722.1,599.6z"/>
		<path class="st2" d="M694.6,599.8l134-134.8l7.5,7.5l-134.8,134L694.6,599.8z"/>
		<path class="st2" d="M667.1,599.8l161.5-162.5l7.5,7.7L673.6,606.3L667.1,599.8z"/>
		<path class="st2" d="M639.7,600l189-190.2l7.5,7.5L645.9,606.3L639.7,600z"/>
		<path class="st2" d="M612.2,600l216.5-217.8l7.5,7.7L618.2,606L612.2,600z"/>
		<path class="st2" d="M584.7,600.2l243.9-245.5l7.5,7.5L590.5,606L584.7,600.2z"/>
		<path class="st2" d="M557.2,600.2L828.6,327l7.5,7.7L562.9,605.8L557.2,600.2z"/>
		<path class="st2" d="M529.7,600.4l298.9-300.9l7.5,7.5l-301,298.9L529.7,600.4z"/>
		<path class="st2" d="M502.2,600.4L828.6,272l7.5,7.5L507.5,605.6L502.2,600.4z"/>
		<path class="st2" d="M474.7,600.6l353.9-356.3l7.5,7.5L479.8,605.6L474.7,600.6z"/>
		<path class="st2" d="M447.3,600.6l381.4-383.8l7.5,7.5l-384,381.1L447.3,600.6z"/>
		<path class="st2" d="M419.8,600.6l408.9-411.4l7.5,7.5L424.4,605.4L419.8,600.6z"/>
		<path class="st2" d="M392.3,600.8l436.4-439.1l7.5,7.5L396.7,605.2L392.3,600.8z"/>
		<path class="st2" d="M364.8,600.8L828.6,134l7.5,7.5L369.2,605.2L364.8,600.8z"/>
		<path class="st2" d="M337.3,601l491.3-494.5l7.5,7.5L341.5,605L337.3,601z"/>
		<path class="st2" d="M309.8,601L828.6,78.8l7.5,7.5L313.9,605L309.8,601z"/>
		<path class="st2" d="M282.3,601.2L828.6,51.3l7.5,7.5L286.2,605L282.3,601.2z"/>
		<path class="st2" d="M254.8,601.2L828.6,23.6l7.5,7.5L258.5,604.8L254.8,601.2z"/>
		<path class="st2" d="M227.3,601.4L828.6-3.8l7.5,7.5L230.8,604.8L227.3,601.4z"/>
		<path class="st2" d="M199.9,601.4L822-24.9l7.5,7.5l-626.3,622L199.9,601.4z"/>
		<path class="st2" d="M172.4,601.6L794.3-24.7l7.5,7.3l-626.3,622L172.4,601.6z"/>
		<path class="st2" d="M144.9,601.6L767-24.7l7.1,7.1l-626.3,622L144.9,601.6z"/>
		<path class="st2" d="M117.4,601.8L739.5-24.5l6.9,6.9L120,604.4L117.4,601.8z"/>
		<path class="st2" d="M89.9,601.8L712-24.5l6.7,6.7l-626.3,622L89.9,601.8z"/>
		<path class="st2" d="M62.4,602L684.3-24.3l6.7,6.5l-626.4,622L62.4,602z"/>
		<path class="st2" d="M34.9,602L656.8-24.3l6.5,6.5L37,604L34.9,602z"/>
		<path class="st2" d="M7.4,602L629.4-24l6.3,6.1L9.3,604L7.4,602z"/>
		<path class="st2" d="M-20,602.2L601.9-24l6.1,6.1L-18.4,603.8L-20,602.2z"/>
		<path class="st2" d="M-26.7,581.4L574.4-24l5.9,5.9L-25.1,583L-26.7,581.4z"/>
		<path class="st2" d="M-26.7,553.7L546.9-23.8l5.7,5.7L-25.1,555.3L-26.7,553.7z"/>
		<path class="st2" d="M-26.7,526.2L519.4-23.8l5.5,5.5l-550,546.2L-26.7,526.2z"/>
		<path class="st2" d="M-26.7,498.5L491.9-23.6l5.3,5.3L-25.1,500.4L-26.7,498.5z"/>
		<path class="st2" d="M-26.7,471.1L464.4-23.6l5.1,5.1L-25.1,472.7L-26.7,471.1z"/>
		<path class="st2" d="M-26.7,443.4L436.9-23.4l4.8,4.9L-25.1,445.2L-26.7,443.4z"/>
		<path class="st2" d="M-26.7,415.9L409.5-23.4l4.6,4.6L-25.1,417.5L-26.7,415.9z"/>
		<path class="st2" d="M-26.7,388.2L382-23.2l4.4,4.4L-25.1,390L-26.7,388.2z"/>
		<path class="st2" d="M-26.7,360.7l381.2-384l4.3,4.2L-25.1,362.3L-26.7,360.7z"/>
		<path class="st2" d="M-26.7,333L327-23l4,4L-25.1,334.9L-26.7,333z"/>
		<path class="st2" d="M-26.7,305.5L299.5-23l4,3.8L-25.1,307.2L-26.7,305.5z"/>
		<path class="st2" d="M-26.7,277.9L272-22.8l3.8,3.6l-301,298.9L-26.7,277.9z"/>
		<path class="st2" d="M-26.7,250.4L244.5-22.8l3.6,3.6L-25.1,252L-26.7,250.4z"/>
		<path class="st2" d="M-26.7,222.7L217-22.6l3.4,3.2L-25.1,224.5L-26.7,222.7z"/>
		<path class="st2" d="M-26.7,195.2L189.5-22.6l3.2,3.2L-25.1,196.8L-26.7,195.2z"/>
		<path class="st2" d="M-26.7,167.5l188.8-190l3,2.8L-25.1,169.3L-26.7,167.5z"/>
		<path class="st2" d="M-26.7,140L134.6-22.4l2.8,2.8L-25.1,141.7L-26.7,140z"/>
		<path class="st2" d="M-26.7,112.4L107.1-22.4l2.6,2.6l-134.8,134L-26.7,112.4z"/>
		<path class="st2" d="M-26.7,84.9L79.6-22.2l2.4,2.4L-25.1,86.5L-26.7,84.9z"/>
		<path class="st2" d="M-26.7,57.2l78.8-79.4l2.2,2.2l-79.4,79L-26.7,57.2z"/>
		<path class="st2" d="M-26.7,29.7L24.6-22l2,2l-51.7,51.3L-26.7,29.7z"/>
	</g>
</g>
<g>
	<defs>
		<rect id="SVGID_7_" y="582" width="800.4" height="582"/>
	</defs>
	<clipPath id="SVGID_8_">
		<use xlink:href="#SVGID_7_"  style="overflow:visible;"/>
	</clipPath>
	<g class="st5">
		<path class="st1" d="M800.4,582H0v582h800.4V582z"/>
		<path class="st2" d="M774.1,1181.4l51.5-51.7l7.5,7.5l-51.8,51.5L774.1,1181.4z"/>
		<path class="st2" d="M746.6,1181.6l79-79.4l7.5,7.5l-79.4,78.8L746.6,1181.6z"/>
		<path class="st2" d="M719.1,1181.6l106.5-107.1l7.5,7.7L726,1188.4L719.1,1181.6z"/>
		<path class="st2" d="M691.6,1181.8l134-134.8l7.5,7.5l-134.8,134L691.6,1181.8z"/>
		<path class="st2" d="M664.1,1181.8l161.5-162.5l7.5,7.7l-162.5,161.3L664.1,1181.8z"/>
		<path class="st2" d="M636.7,1182l189-190.2l7.5,7.5l-190.2,188.9L636.7,1182z"/>
		<path class="st2" d="M609.2,1182l216.5-217.8l7.5,7.7l-217.9,216.2L609.2,1182z"/>
		<path class="st2" d="M581.7,1182.2l244-245.5l7.5,7.5l-245.6,243.9L581.7,1182.2z"/>
		<path class="st2" d="M554.2,1182.2L825.6,909l7.5,7.7l-273.3,271.2L554.2,1182.2z"/>
		<path class="st2" d="M526.7,1182.4l298.9-300.9l7.5,7.5l-301,298.9L526.7,1182.4z"/>
		<path class="st2" d="M499.2,1182.4L825.6,854l7.5,7.5l-328.6,326.2L499.2,1182.4z"/>
		<path class="st2" d="M471.7,1182.6l353.9-356.3l7.5,7.5l-356.3,353.8L471.7,1182.6z"/>
		<path class="st2" d="M444.3,1182.6l381.4-383.8l7.5,7.5l-384,381.1L444.3,1182.6z"/>
		<path class="st2" d="M416.8,1182.6l408.9-411.4l7.5,7.5l-411.7,408.8L416.8,1182.6z"/>
		<path class="st2" d="M389.3,1182.8l436.4-439.1l7.5,7.5l-439.4,436.1L389.3,1182.8z"/>
		<path class="st2" d="M361.8,1182.8L825.6,716l7.5,7.5l-466.9,463.8L361.8,1182.8z"/>
		<path class="st2" d="M334.3,1183l491.3-494.5l7.5,7.5L338.5,1187L334.3,1183z"/>
		<path class="st2" d="M306.8,1183l518.8-522.2l7.5,7.5L310.8,1187L306.8,1183z"/>
		<path class="st2" d="M279.3,1183.2l546.3-549.9l7.5,7.5l-550,546.2L279.3,1183.2z"/>
		<path class="st2" d="M251.8,1183.2l573.8-577.6l7.5,7.5l-577.7,573.7L251.8,1183.2z"/>
		<path class="st2" d="M224.3,1183.4l601.3-605.2l7.5,7.5l-605.3,601.2L224.3,1183.4z"/>
		<path class="st2" d="M196.9,1183.4L819,557.1l7.5,7.5l-626.4,622L196.9,1183.4z"/>
		<path class="st2" d="M169.4,1183.6l621.9-626.3l7.5,7.3l-626.4,622L169.4,1183.6z"/>
		<path class="st2" d="M141.9,1183.6L764,557.3l7.1,7.1l-626.4,622L141.9,1183.6z"/>
		<path class="st2" d="M114.4,1183.8l622.1-626.3l6.9,6.9l-626.4,622L114.4,1183.8z"/>
		<path class="st2" d="M86.9,1183.8L709,557.5l6.7,6.7l-626.4,622L86.9,1183.8z"/>
		<path class="st2" d="M59.4,1184l621.9-626.3l6.7,6.5l-626.4,622L59.4,1184z"/>
		<path class="st2" d="M31.9,1184l621.9-626.3l6.5,6.5L33.9,1186L31.9,1184z"/>
		<path class="st2" d="M4.4,1184L626.3,558l6.3,6.1L6.3,1186L4.4,1184z"/>
		<path class="st2" d="M-23,1184.2L598.9,558l6.1,6.1l-626.4,621.8L-23,1184.2z"/>
		<path class="st2" d="M-29.7,1163.4L571.4,558l5.9,5.9L-28.1,1165L-29.7,1163.4z"/>
		<path class="st2" d="M-29.7,1135.7l573.6-577.6l5.7,5.7l-577.7,573.5L-29.7,1135.7z"/>
		<path class="st2" d="M-29.7,1108.2l546.1-550.1l5.5,5.5l-550,546.2L-29.7,1108.2z"/>
		<path class="st2" d="M-29.7,1080.5l518.6-522.2l5.3,5.3l-522.3,518.8L-29.7,1080.5z"/>
		<path class="st2" d="M-29.7,1053.1l491.1-494.7l5.1,5.1l-494.6,491.3L-29.7,1053.1z"/>
		<path class="st2" d="M-29.7,1025.4l463.7-466.8l4.8,4.9l-466.9,463.8L-29.7,1025.4z"/>
		<path class="st2" d="M-29.7,997.9l436.2-439.3l4.7,4.6L-28.1,999.5L-29.7,997.9z"/>
		<path class="st2" d="M-29.7,970.2L379,558.8l4.4,4.4L-28.1,972L-29.7,970.2z"/>
		<path class="st2" d="M-29.7,942.7l381.2-384l4.2,4.2L-28.1,944.3L-29.7,942.7z"/>
		<path class="st2" d="M-29.7,915L324,559l4,4L-28.1,916.9L-29.7,915z"/>
		<path class="st2" d="M-29.7,887.5L296.5,559l4,3.8L-28.1,889.2L-29.7,887.5z"/>
		<path class="st2" d="M-29.7,859.9L269,559.2l3.8,3.6l-301,298.9L-29.7,859.9z"/>
		<path class="st2" d="M-29.7,832.4l271.2-273.2l3.6,3.6L-28.1,834L-29.7,832.4z"/>
		<path class="st2" d="M-29.7,804.7L214,559.4l3.4,3.2L-28.1,806.5L-29.7,804.7z"/>
		<path class="st2" d="M-29.7,777.2l216.3-217.8l3.2,3.2L-28.1,778.8L-29.7,777.2z"/>
		<path class="st2" d="M-29.7,749.5l188.8-190l3,2.8L-28.1,751.3L-29.7,749.5z"/>
		<path class="st2" d="M-29.7,722l161.3-162.5l2.8,2.8L-28.1,723.7L-29.7,722z"/>
		<path class="st2" d="M-29.7,694.4l133.8-134.8l2.6,2.6l-134.8,134L-29.7,694.4z"/>
		<path class="st2" d="M-29.7,666.9L76.6,559.8l2.4,2.4L-28.1,668.5L-29.7,666.9z"/>
		<path class="st2" d="M-29.7,639.2l78.8-79.4l2.2,2.2l-79.4,79L-29.7,639.2z"/>
		<path class="st2" d="M-29.7,611.7L21.6,560l2,2l-51.8,51.3L-29.7,611.7z"/>
	</g>
</g>
</svg>
