<?xml version="1.0" encoding="utf-8"?>
<!-- Generator: Adobe Illustrator 24.1.1, SVG Export Plug-In . SVG Version: 6.00 Build 0)  -->
<svg version="1.1" id="Слой_1" xmlns="http://www.w3.org/2000/svg" xmlns:xlink="http://www.w3.org/1999/xlink" x="0px" y="0px"
	 viewBox="0 0 240 600" style="enable-background:new 0 0 240 600;" xml:space="preserve">
<style type="text/css">
	.st0{clip-path:url(#SVGID_2_);}
	.st1{clip-path:url(#SVGID_4_);}
	.st2{fill:#FFFFFF;}
	.st3{fill:#0F4378;fill-opacity:0.1;}
	.st4{clip-path:url(#SVGID_6_);}
</style>
<g>
	<defs>
		<rect id="SVGID_1_" x="1.4" width="238.6" height="600"/>
	</defs>
	<clipPath id="SVGID_2_">
		<use xlink:href="#SVGID_1_"  style="overflow:visible;"/>
	</clipPath>
	<g class="st0">
		<defs>
			<rect id="SVGID_3_" x="-172.4" width="412.4" height="299.9"/>
		</defs>
		<clipPath id="SVGID_4_">
			<use xlink:href="#SVGID_3_"  style="overflow:visible;"/>
		</clipPath>
		<g class="st1">
			<path class="st2" d="M240,0h-412.4v299.9H240V0z"/>
			<path class="st3" d="M226.5,308.9l26.6-26.7l3.9,3.9l-26.7,26.6L226.5,308.9z"/>
			<path class="st3" d="M212.3,309L253,268l3.9,3.9l-40.9,40.6L212.3,309z"/>
			<path class="st3" d="M198.1,309l54.9-55.2l3.9,4l-55.2,54.8L198.1,309z"/>
			<path class="st3" d="M184,309.1l69-69.5l3.9,3.9l-69.5,69L184,309.1z"/>
			<path class="st3" d="M169.8,309.1l83.2-83.7l3.9,4l-83.7,83.1L169.8,309.1z"/>
			<path class="st3" d="M155.6,309.2l97.4-98l3.9,3.9l-98,97.4L155.6,309.2z"/>
			<path class="st3" d="M141.5,309.2L253,196.9l3.9,4L144.6,312.3L141.5,309.2z"/>
			<path class="st3" d="M127.3,309.3L253,182.8l3.9,3.9L130.3,312.3L127.3,309.3z"/>
			<path class="st3" d="M113.1,309.3L253,168.5l3.9,4L116.1,312.2L113.1,309.3z"/>
			<path class="st3" d="M99,309.4l154-155.1l3.9,3.9l-155.1,154L99,309.4z"/>
			<path class="st3" d="M84.8,309.4L253,140.2l3.9,3.9L87.5,312.1L84.8,309.4z"/>
			<path class="st3" d="M70.7,309.5L253,125.9l3.9,3.9L73.3,312.1L70.7,309.5z"/>
			<path class="st3" d="M56.5,309.5L253,111.7l3.9,3.9L59,312L56.5,309.5z"/>
			<path class="st3" d="M42.3,309.5L253,97.5l3.9,3.9L44.7,312L42.3,309.5z"/>
			<path class="st3" d="M28.2,309.6L253,83.3l3.9,3.9L30.5,311.9L28.2,309.6z"/>
			<path class="st3" d="M14,309.6L253,69l3.9,3.9l-240.6,239L14,309.6z"/>
			<path class="st3" d="M-0.2,309.7L253,54.9l3.9,3.9L2,311.8L-0.2,309.7z"/>
			<path class="st3" d="M-14.3,309.7L253,40.6l3.9,3.9L-12.2,311.8L-14.3,309.7z"/>
			<path class="st3" d="M-28.5,309.8L253,26.4l3.9,3.9L-26.5,311.8L-28.5,309.8z"/>
			<path class="st3" d="M-42.7,309.8L253,12.2l3.9,3.9L-40.8,311.7L-42.7,309.8z"/>
			<path class="st3" d="M-56.8,309.9L253-2l3.9,3.9L-55,311.7L-56.8,309.9z"/>
			<path class="st3" d="M-71,309.9L249.6-12.8l3.9,3.9L-69.3,311.6L-71,309.9z"/>
			<path class="st3" d="M-85.1,310L235.3-12.7l3.9,3.7L-83.6,311.6L-85.1,310z"/>
			<path class="st3" d="M-99.3,310L221.3-12.7l3.6,3.6L-97.9,311.5L-99.3,310z"/>
			<path class="st3" d="M-113.5,310.1L207.1-12.6l3.5,3.5l-322.8,320.5L-113.5,310.1z"/>
			<path class="st3" d="M-127.6,310.1L192.9-12.6l3.4,3.4l-322.8,320.5L-127.6,310.1z"/>
			<path class="st3" d="M-141.8,310.2L178.7-12.5l3.4,3.3l-322.8,320.5L-141.8,310.2z"/>
			<path class="st3" d="M-156,310.2L164.5-12.5l3.3,3.3l-322.8,320.4L-156,310.2z"/>
			<path class="st3" d="M-170.1,310.2L150.3-12.4l3.2,3.1l-322.8,320.5L-170.1,310.2z"/>
			<path class="st3" d="M-184.3,310.3L136.2-12.4l3.1,3.1l-322.8,320.4L-184.3,310.3z"/>
			<path class="st3" d="M-187.7,299.6L122-12.4l3,3l-311.9,309.8L-187.7,299.6z"/>
			<path class="st3" d="M-187.7,285.3L107.8-12.3l2.9,2.9l-297.7,295.5L-187.7,285.3z"/>
			<path class="st3" d="M-187.7,271.2L93.7-12.3l2.8,2.8L-186.9,272L-187.7,271.2z"/>
			<path class="st3" d="M-187.7,256.9L79.5-12.2l2.7,2.7l-269.1,267.3L-187.7,256.9z"/>
			<path class="st3" d="M-187.7,242.7L65.3-12.2l2.6,2.6l-254.8,253.1L-187.7,242.7z"/>
			<path class="st3" d="M-187.7,228.5L51.2-12.1l2.5,2.5l-240.6,239L-187.7,228.5z"/>
			<path class="st3" d="M-187.7,214.3L37-12.1l2.4,2.4l-226.3,224.8L-187.7,214.3z"/>
			<path class="st3" d="M-187.7,200L22.9-12l2.3,2.3l-212,210.7L-187.7,200z"/>
			<path class="st3" d="M-187.7,185.9L8.7-12l2.2,2.2l-197.8,196.5L-187.7,185.9z"/>
			<path class="st3" d="M-187.7,171.6L-5.5-11.9l2.1,2.1l-183.5,182.3L-187.7,171.6z"/>
			<path class="st3" d="M-187.7,157.4L-19.6-11.9l2.1,2l-169.3,168.2L-187.7,157.4z"/>
			<path class="st3" d="M-187.7,143.2L-33.8-11.8l2,1.9l-155.1,154L-187.7,143.2z"/>
			<path class="st3" d="M-187.7,129L-48-11.8l1.9,1.9l-140.8,139.7L-187.7,129z"/>
			<path class="st3" d="M-187.7,114.8L-62.1-11.7l1.8,1.7l-126.5,125.7L-187.7,114.8z"/>
			<path class="st3" d="M-187.7,100.6L-76.3-11.7l1.7,1.7l-112.3,111.4L-187.7,100.6z"/>
			<path class="st3" d="M-187.7,86.3l97.3-97.9l1.6,1.5l-98,97.4L-187.7,86.3z"/>
			<path class="st3" d="M-187.7,72.2l83.1-83.7l1.5,1.5L-186.9,73L-187.7,72.2z"/>
			<path class="st3" d="M-187.7,57.9l68.9-69.5l1.4,1.4l-69.5,69L-187.7,57.9z"/>
			<path class="st3" d="M-187.7,43.7l54.8-55.2l1.3,1.2l-55.2,54.8L-187.7,43.7z"/>
			<path class="st3" d="M-187.7,29.5l40.6-40.9l1.1,1.1l-40.9,40.7L-187.7,29.5z"/>
			<path class="st3" d="M-187.7,15.3l26.5-26.7l1,1l-26.7,26.4L-187.7,15.3z"/>
		</g>
	</g>
	<g class="st0">
		<defs>
			<rect id="SVGID_5_" x="-172.4" y="299.9" width="412.4" height="299.9"/>
		</defs>
		<clipPath id="SVGID_6_">
			<use xlink:href="#SVGID_5_"  style="overflow:visible;"/>
		</clipPath>
		<g class="st4">
			<path class="st2" d="M240,299.9h-412.4v299.9H240V299.9z"/>
			<path class="st3" d="M226.5,608.8l26.6-26.7l3.9,3.8l-26.7,26.6L226.5,608.8z"/>
			<path class="st3" d="M212.3,608.9l40.7-40.9l3.9,3.9l-40.9,40.6L212.3,608.9z"/>
			<path class="st3" d="M198.1,608.9l54.9-55.2l3.9,4l-55.2,54.8L198.1,608.9z"/>
			<path class="st3" d="M184,609l69-69.5l3.9,3.9l-69.5,69L184,609z"/>
			<path class="st3" d="M169.8,609l83.2-83.7l3.9,4l-83.7,83.1L169.8,609z"/>
			<path class="st3" d="M155.6,609.1l97.4-98l3.9,3.9l-98,97.4L155.6,609.1z"/>
			<path class="st3" d="M141.5,609.1L253,496.8l3.9,4L144.6,612.2L141.5,609.1z"/>
			<path class="st3" d="M127.3,609.2L253,482.7l3.9,3.9L130.3,612.2L127.3,609.2z"/>
			<path class="st3" d="M113.1,609.2L253,468.4l3.9,4L116.1,612.1L113.1,609.2z"/>
			<path class="st3" d="M99,609.3l154-155.1l3.9,3.9l-155.1,154L99,609.3z"/>
			<path class="st3" d="M84.8,609.3L253,440.1l3.9,3.9L87.5,612L84.8,609.3z"/>
			<path class="st3" d="M70.7,609.4L253,425.8l3.9,3.9L73.3,612L70.7,609.4z"/>
			<path class="st3" d="M56.5,609.4L253,411.6l3.9,3.9L59,611.9L56.5,609.4z"/>
			<path class="st3" d="M42.3,609.4l210.7-212l3.9,3.9L44.7,611.9L42.3,609.4z"/>
			<path class="st3" d="M28.2,609.5L253,383.2l3.9,3.9L30.5,611.8L28.2,609.5z"/>
			<path class="st3" d="M14,609.5l239-240.5l3.9,3.9l-240.6,239L14,609.5z"/>
			<path class="st3" d="M-0.2,609.6L253,354.8l3.9,3.9L2,611.7L-0.2,609.6z"/>
			<path class="st3" d="M-14.3,609.6L253,340.5l3.9,3.9L-12.2,611.7L-14.3,609.6z"/>
			<path class="st3" d="M-28.5,609.7L253,326.4l3.9,3.9L-26.5,611.7L-28.5,609.7z"/>
			<path class="st3" d="M-42.7,609.7L253,312.1l3.9,3.9L-40.8,611.6L-42.7,609.7z"/>
			<path class="st3" d="M-56.8,609.8L253,297.9l3.9,3.9L-55.1,611.6L-56.8,609.8z"/>
			<path class="st3" d="M-71,609.8l320.6-322.7l3.9,3.9L-69.3,611.5L-71,609.8z"/>
			<path class="st3" d="M-85.2,609.9l320.5-322.7l3.9,3.7L-83.6,611.5L-85.2,609.9z"/>
			<path class="st3" d="M-99.3,609.9l320.6-322.7l3.6,3.6L-97.9,611.4L-99.3,609.9z"/>
			<path class="st3" d="M-113.5,610l320.6-322.7l3.5,3.5l-322.8,320.5L-113.5,610z"/>
			<path class="st3" d="M-127.6,610l320.6-322.7l3.4,3.4l-322.8,320.5L-127.6,610z"/>
			<path class="st3" d="M-141.8,610.1l320.5-322.7l3.4,3.3l-322.8,320.5L-141.8,610.1z"/>
			<path class="st3" d="M-156,610.1l320.5-322.7l3.3,3.3l-322.8,320.4L-156,610.1z"/>
			<path class="st3" d="M-170.1,610.1l320.5-322.6l3.2,3.1l-322.8,320.5L-170.1,610.1z"/>
			<path class="st3" d="M-184.3,610.2l320.5-322.7l3.1,3.1L-183.5,611L-184.3,610.2z"/>
			<path class="st3" d="M-187.7,599.5l309.7-312l3,3l-311.9,309.8L-187.7,599.5z"/>
			<path class="st3" d="M-187.7,585.2l295.6-297.6l2.9,2.9l-297.7,295.5L-187.7,585.2z"/>
			<path class="st3" d="M-187.7,571.1L93.7,287.6l2.8,2.8l-283.4,281.5L-187.7,571.1z"/>
			<path class="st3" d="M-187.7,556.8L79.5,287.7l2.7,2.7l-269.1,267.3L-187.7,556.8z"/>
			<path class="st3" d="M-187.7,542.6L65.3,287.7l2.6,2.6l-254.9,253.1L-187.7,542.6z"/>
			<path class="st3" d="M-187.7,528.4L51.2,287.8l2.5,2.5l-240.6,239L-187.7,528.4z"/>
			<path class="st3" d="M-187.7,514.2L37,287.8l2.4,2.4L-186.9,515L-187.7,514.2z"/>
			<path class="st3" d="M-187.7,499.9l210.6-212l2.3,2.3l-212,210.7L-187.7,499.9z"/>
			<path class="st3" d="M-187.7,485.8L8.7,287.9l2.2,2.2l-197.8,196.5L-187.7,485.8z"/>
			<path class="st3" d="M-187.7,471.5L-5.5,288l2.1,2.1l-183.5,182.3L-187.7,471.5z"/>
			<path class="st3" d="M-187.7,457.3L-19.6,288l2.1,2l-169.3,168.2L-187.7,457.3z"/>
			<path class="st3" d="M-187.7,443.1l153.9-154.9l2,1.9l-155.1,154L-187.7,443.1z"/>
			<path class="st3" d="M-187.7,428.9L-48,288.1l1.9,1.9l-140.8,139.7L-187.7,428.9z"/>
			<path class="st3" d="M-187.7,414.7l125.6-126.4l1.8,1.7l-126.5,125.7L-187.7,414.7z"/>
			<path class="st3" d="M-187.7,400.5l111.4-112.3l1.7,1.7l-112.3,111.4L-187.7,400.5z"/>
			<path class="st3" d="M-187.7,386.2l97.3-97.9l1.6,1.5l-98,97.4L-187.7,386.2z"/>
			<path class="st3" d="M-187.7,372.1l83.1-83.7l1.5,1.5l-83.7,83.1L-187.7,372.1z"/>
			<path class="st3" d="M-187.7,357.8l68.9-69.5l1.4,1.4l-69.5,69L-187.7,357.8z"/>
			<path class="st3" d="M-187.7,343.6l54.8-55.2l1.2,1.2l-55.2,54.8L-187.7,343.6z"/>
			<path class="st3" d="M-187.7,329.4l40.6-40.9l1.1,1.1l-40.9,40.7L-187.7,329.4z"/>
			<path class="st3" d="M-187.7,315.2l26.5-26.7l1,1l-26.7,26.4L-187.7,315.2z"/>
		</g>
	</g>
</g>
</svg>
