<svg width="24" height="24" viewBox="0 0 24 24" fill="none" xmlns="http://www.w3.org/2000/svg">
<path d="M20.484 3.51343C15.797 -1.17214 8.19901 -1.17101 3.51344 3.51601C-1.17214 8.20304 -1.17101 15.801 3.51602 20.4866C8.20304 25.1721 15.801 25.171 20.4866 20.484C22.7369 18.233 24.0007 15.1803 24 11.9974C23.9993 8.81508 22.7346 5.76334 20.484 3.51343ZM18.1736 16.7159C18.1731 16.7164 18.1726 16.7169 18.172 16.7174V16.7135L17.564 17.3174C16.7776 18.1137 15.6324 18.4413 14.544 18.1814C13.4473 17.8879 12.4048 17.4207 11.456 16.7975C10.5744 16.2341 9.75751 15.5755 9.01998 14.8334C8.34137 14.1598 7.73172 13.4201 7.19997 12.6255C6.61834 11.7704 6.15798 10.8389 5.83197 9.85744C5.45823 8.70451 5.76794 7.4394 6.63198 6.58946L7.34397 5.87748C7.54192 5.67863 7.86357 5.67793 8.06237 5.87588C8.06289 5.8764 8.06345 5.87692 8.06397 5.87748L10.3119 8.12546C10.5108 8.32341 10.5115 8.64507 10.3135 8.84386C10.313 8.84438 10.3125 8.8449 10.3119 8.84546L8.99195 10.1655C8.6132 10.5401 8.56557 11.1354 8.87996 11.5655C9.35739 12.2207 9.88571 12.8372 10.46 13.4095C11.1002 14.0525 11.7963 14.6375 12.54 15.1575C12.9697 15.4572 13.5522 15.4067 13.9239 15.0375L15.1999 13.7415C15.3979 13.5427 15.7195 13.542 15.9183 13.7399C15.9188 13.7404 15.9194 13.7409 15.9199 13.7415L18.1719 15.9975C18.3708 16.1954 18.3715 16.517 18.1736 16.7159Z" fill="white"/>
</svg>
