<svg width="25" height="25" viewBox="0 0 25 25" fill="none" xmlns="http://www.w3.org/2000/svg">
<path d="M21.3375 3.65983C16.4552 -1.22098 8.54064 -1.2198 3.65983 3.66251C-1.22098 8.54483 -1.21981 16.4594 3.66252 21.3402C8.54484 26.221 16.4594 26.2198 21.3402 21.3375C23.6842 18.9927 25.0007 15.8128 25 12.4973C24.9993 9.18238 23.6819 6.00348 21.3375 3.65983ZM18.9308 17.4123L18.9292 17.414V17.4099L18.2958 18.039C17.4767 18.8684 16.2838 19.2097 15.15 18.939C14.0076 18.6332 12.9217 18.1465 11.9333 17.4974C11.0151 16.9105 10.1641 16.2245 9.39581 15.4515C8.68893 14.7498 8.05387 13.9793 7.49996 13.1515C6.89411 12.2608 6.41457 11.2905 6.07497 10.2682C5.68566 9.06719 6.00827 7.74937 6.90831 6.86402L7.64996 6.12237C7.85617 5.91524 8.19122 5.91451 8.3983 6.12071L8.39996 6.12237L10.7416 8.46402C10.9487 8.67022 10.9495 9.00528 10.7433 9.21236L10.7416 9.21402L9.36661 10.589C8.97208 10.9793 8.92247 11.5994 9.24996 12.0474C9.74728 12.7299 10.2976 13.3721 10.8958 13.9682C11.5628 14.638 12.2878 15.2474 13.0625 15.7891C13.5101 16.1013 14.1169 16.0486 14.5041 15.6641L15.8333 14.3141C16.0395 14.1069 16.3745 14.1062 16.5816 14.3124L16.5833 14.3141L18.9291 16.6641C19.1363 16.8702 19.137 17.2052 18.9308 17.4123Z" fill="#4D4E62"/>
</svg>
