<svg width="64" height="65" viewBox="0 0 64 65" fill="none" xmlns="http://www.w3.org/2000/svg">
<path d="M63.4895 8.73795L60.4505 6.29211L63.4895 3.84678C63.9621 3.46592 64.1238 2.87231 63.9019 2.33376C63.6789 1.7947 63.1282 1.44657 62.4982 1.44657H49.9223V0.952644C49.9223 0.426483 49.4557 0 48.88 0C48.3043 0 47.8377 0.426483 47.8377 0.952644V13.8007L39.2774 18.0492C39.2302 17.705 39.1173 17.3668 38.9388 17.0484L37.7327 14.8962C36.9047 13.4184 34.9156 12.8327 33.2998 13.5889L32.3671 14.0253C31.5836 14.3923 31.0036 15.0152 30.7334 15.7809C30.4632 16.5461 30.5353 17.3618 30.9369 18.0774L32.143 20.2302C32.4246 20.7325 32.8408 21.1303 33.3302 21.409C32.6899 22.197 32.3861 23.166 32.0736 24.1727L31.8489 24.8997C31.6921 25.406 32.0144 25.9327 32.5684 26.0755C32.6628 26.1003 32.7583 26.1117 32.8522 26.1117C33.3069 26.1117 33.7246 25.8379 33.8549 25.4179L34.0795 24.6924C34.5363 23.22 34.8169 22.4315 35.7099 21.9882L37.3111 21.1932L37.5086 21.101C37.5742 21.0703 37.6356 21.0355 37.698 21.0013L49.1095 15.3375C49.0373 16.6413 48.2696 17.8731 47.0054 18.5748L39.5845 22.6958C39.5758 22.7003 39.5671 22.7048 39.559 22.7097L37.2492 23.9922C36.7577 24.2654 36.6009 24.8516 36.8998 25.3014C37.1814 25.7254 37.7674 25.8761 38.2454 25.6634L36.4929 30.5054L35.2118 30.9855L31.7285 32.2902L32.7323 29.047C32.8885 28.5406 32.5668 28.014 32.0128 27.8707C31.4583 27.7269 30.8826 28.0219 30.7258 28.5283L29.1398 33.6545C29.1192 33.7204 29.1056 33.7928 29.1024 33.8618L28.6873 40.8303C28.6748 41.0961 28.7367 41.5985 28.6021 41.8578L23.9924 50.7217H20.6425C18.68 50.7217 17.0837 52.1807 17.0837 53.9739V56.7237C16.6344 56.5358 16.1358 56.4307 15.61 56.4307H7.10292C5.14095 56.4307 3.54468 57.8891 3.54468 59.6828V63.0947H1.0423C0.466619 63.0947 0 63.5212 0 64.0474C0 64.5735 0.466619 65 1.0423 65H62.4971C63.0728 65 63.5394 64.5735 63.5394 64.0474C63.5394 63.5212 63.0728 63.0947 62.4971 63.0947H59.7864V38.5397C59.7864 36.7465 58.1901 35.2875 56.2282 35.2875H49.9223V18.6681C51.078 17.2364 51.5061 15.3598 50.9695 13.5765C50.8854 13.2964 50.6656 13.0663 50.3726 12.9527C50.2289 12.8967 50.0748 12.8719 49.9223 12.8773V11.1382H62.4977C63.1282 11.1382 63.6789 10.79 63.9013 10.2515C64.1238 9.71291 63.9621 9.1188 63.4895 8.73795ZM32.7176 16.366C32.8169 16.0849 33.0296 15.8558 33.3172 15.7214L34.2499 15.285C34.4257 15.2026 34.6134 15.1635 34.7989 15.1635C35.2384 15.1635 35.6633 15.3831 35.8771 15.7645L37.0838 17.9173C37.3654 18.4201 37.183 19.0296 36.6822 19.3375L36.3426 19.5057L35.6258 19.8414C35.0328 20.1191 34.3025 19.9039 33.9986 19.3613L32.7919 17.2091C32.6449 16.9463 32.6183 16.6467 32.7176 16.366ZM30.6232 51.0148C30.2689 50.867 29.8837 50.7703 29.4789 50.7361L30.6232 49.3471V51.0148ZM35.5721 43.3386C36.0735 42.7896 36.2118 42.1484 36.3236 41.6317C36.3518 41.5087 36.8662 38.9409 36.8662 38.9409C36.8662 38.9409 37.3529 39.2181 37.4039 39.2379C37.4391 39.2523 37.4641 39.2841 37.4679 39.3213L38.0349 44.5893H34.5418L35.5721 43.3386ZM41.7358 38.0805L40.8558 44.5848H40.1293L39.5427 39.1348C39.4679 38.4365 39.0001 37.8271 38.3149 37.5241L37.2666 36.9166L37.9649 33.3792C37.9649 33.3792 40.9068 36.5734 40.9751 36.6547C41.5839 37.3783 41.7923 37.6679 41.7358 38.0805ZM30.4773 42.691C30.6878 42.1117 30.7855 41.5221 30.7692 40.9225L31.1479 34.567L35.9688 32.7613L35.0925 37.1978C35.0898 37.2097 35.0871 37.2221 35.0854 37.234L34.3605 40.9022C34.2661 41.2821 34.1837 41.8583 33.9243 42.1712L26.8811 50.7217H26.3005L30.4773 42.691ZM5.62927 59.6824C5.62927 58.94 6.29014 58.336 7.10292 58.336H15.61C16.4228 58.336 17.0842 58.94 17.0842 59.6824V63.0947H5.62927V59.6824ZM19.1683 59.6824V53.9739C19.1683 53.231 19.8297 52.627 20.6425 52.627H29.1496C29.9624 52.627 30.6232 53.231 30.6232 53.9739V63.0947H19.1688V59.6824H19.1683ZM57.7018 38.5397V63.0947H46.2474V57.3828C46.2474 56.8567 45.7808 56.4302 45.2051 56.4302C44.6289 56.4302 44.1623 56.8567 44.1623 57.3828V63.0947H32.7078V47.841C32.7078 47.0986 33.3687 46.4946 34.1815 46.4946H42.6886C43.5014 46.4946 44.1623 47.0986 44.1623 47.841V52.6166C44.1623 53.1428 44.6289 53.5693 45.2046 53.5693C45.7808 53.5693 46.2469 53.1428 46.2469 52.6166V38.5397C46.2469 37.7968 46.9083 37.1928 47.721 37.1928H48.8691C48.8724 37.1928 48.8762 37.1933 48.88 37.1933C48.8833 37.1933 48.8871 37.1928 48.8903 37.1928H56.2276C57.0404 37.1928 57.7018 37.7973 57.7018 38.5397ZM47.721 35.2875C45.7591 35.2875 44.1628 36.7465 44.1628 38.5397V44.8824C43.7895 44.7267 43.3826 44.628 42.9545 44.5992L43.8047 38.315C43.9718 37.0901 43.2882 36.2783 42.6273 35.4928C42.5573 35.4095 38.5059 31.0128 38.5059 31.0128L40.9914 24.1444L47.8377 20.3428V35.2875H47.721ZM49.9223 9.23237V3.35236H60.9492L58.5743 5.2636C58.2509 5.52395 58.0653 5.89886 58.0653 6.29261C58.0653 6.68636 58.2509 7.06127 58.5743 7.32162L60.9492 9.23286H49.9223V9.23237Z" fill="white"/>
</svg>
