<svg width="496" height="496" viewBox="0 0 496 496" fill="none" xmlns="http://www.w3.org/2000/svg">
<g clip-path="url(#clip0)">
<path d="M296 168C296 172.418 292.418 176 288 176C283.582 176 280 172.418 280 168C280 163.582 283.582 160 288 160C292.418 160 296 163.582 296 168Z" fill="white"/>
<path d="M376 168C376 172.418 372.418 176 368 176C363.582 176 360 172.418 360 168C360 163.582 363.582 160 368 160C372.418 160 376 163.582 376 168Z" fill="white"/>
<path d="M328 232C319.176 232 312 224.824 312 216H296C296 233.648 310.352 248 328 248C345.648 248 360 233.648 360 216H344C344 224.824 336.824 232 328 232Z" fill="white"/>
<path d="M457.711 317.48L448.266 314.328C448.855 310.32 450.824 307.938 453.922 304.535C458.168 299.855 464 293.449 464 281.551C464 269.664 458.168 263.246 453.922 258.566C450.223 254.496 448 252.055 448 246.344C448 240.648 450.223 238.191 453.91 234.145C458.168 229.465 464 223.062 464 211.168C464 199.273 458.168 192.879 453.91 188.199C450.223 184.152 448 181.695 448 176V120C448 53.832 394.168 0 328 0C261.832 0 208 53.832 208 120V176C208 181.695 205.777 184.152 202.09 188.199C200.512 189.93 198.727 191.902 197.098 194.289C193.434 193.016 189.609 192.281 185.695 192.113C195 177.93 200 161.328 200 144C200 95.4805 160.52 56 112 56C63.4805 56 24 95.4805 24 144C24 161.344 29.0078 177.969 38.3281 192.168C17.0625 193.062 0 210.52 0 232V456C0 478.055 17.9453 496 40 496H184C203.32 496 219.48 482.23 223.191 464H496V370.594C496 346.457 480.609 325.105 457.711 317.48V317.48ZM442.09 198.969C445.777 203.023 448 205.48 448 211.168C448 216.855 445.777 219.32 442.09 223.367C437.832 228.055 432 234.457 432 246.344C432 258.23 437.832 264.648 442.078 269.328C445.777 273.391 448 275.832 448 281.543C448 287.258 445.777 289.711 442.078 293.77C438.84 297.344 434.695 301.945 432.902 309.199L376 290.23V273.656C395.961 260.609 410.266 239.688 414.574 215.328C425.695 213.473 435.289 207.113 441.305 198.09C441.559 198.383 441.832 198.688 442.09 198.969V198.969ZM328 272C288.297 272 256 239.703 256 200V144.984C256 130.695 264.793 118.121 277.84 113.062C309.871 143.367 351.602 160 395.879 160H400V200C400 239.703 367.703 272 328 272ZM328 288C339.297 288 350.062 285.785 360 281.887V292.152L328 317.762L296 292.152V281.887C305.938 285.785 316.703 288 328 288ZM286.398 304.969L315.352 328.129L284.672 353.695L273.551 309.246L286.398 304.969ZM319.238 384H336.762L343.16 448H312.84L319.238 384ZM339.473 368H316.535L308.52 354.648L328 338.414L347.48 354.648L339.473 368ZM340.648 328.129L369.602 304.969L382.441 309.246L371.32 353.695L340.648 328.129ZM416 153.473C425.289 156.785 432 165.586 432 176C432 186.414 425.289 195.215 416 198.527V153.473ZM328 16C385.344 16 432 62.6562 432 120V144.207C427.328 140.672 421.945 138.023 416 136.816V112H400V144H395.879C354.238 144 315.098 127.793 285.656 98.3438L282.457 95.1445L278.062 96.2461C258.367 101.168 243.922 117.246 240.695 136.742C234.488 137.895 228.848 140.535 224 144.207V120C224 62.6562 270.656 16 328 16V16ZM224 176C224 165.586 230.711 156.785 240 153.473V198.52C230.711 195.215 224 186.414 224 176ZM213.91 198.969C214.168 198.688 214.449 198.375 214.711 198.078C220.695 207.039 230.246 213.383 241.414 215.312C245.711 239.68 260.023 260.609 279.992 273.664V290.238L223.09 309.207C221.297 301.953 217.152 297.352 213.91 293.777C210.223 289.711 208 287.258 208 281.543C208 275.832 210.223 273.383 213.922 269.328C218.168 264.648 224 258.23 224 246.344C224 234.457 218.168 228.055 213.91 223.375C210.223 219.32 208 216.863 208 211.168C208 205.473 210.223 203.023 213.91 198.969V198.969ZM112 72C151.703 72 184 104.297 184 144C184 161.887 177.426 178.777 165.559 192H120V182.527C129.289 179.215 136 170.414 136 160C136 146.77 125.23 136 112 136C107.586 136 104 132.414 104 128C104 123.586 107.586 120 112 120C116.414 120 120 123.586 120 128H136C136 117.586 129.289 108.785 120 105.473V88H104V105.473C94.7109 108.785 88 117.586 88 128C88 141.23 98.7695 152 112 152C116.414 152 120 155.586 120 160C120 164.414 116.414 168 112 168C107.586 168 104 164.414 104 160H88C88 170.414 94.7109 179.215 104 182.527V192H58.4414C46.5742 178.777 40 161.887 40 144C40 104.297 72.2969 72 112 72ZM208 448V456C208 469.23 197.23 480 184 480H40C26.7695 480 16 469.23 16 456V232C16 218.77 26.7695 208 40 208H184C186.793 208 189.52 208.535 192.105 209.465C192.078 210.039 192 210.566 192 211.168C192 223.055 197.832 229.457 202.09 234.137C205.777 238.191 208 240.648 208 246.344C208 252.055 205.777 254.504 202.078 258.559C197.832 263.238 192 269.656 192 281.543C192 293.441 197.832 299.848 202.078 304.527C205.176 307.937 207.145 310.32 207.734 314.32L198.289 317.473C196.098 318.199 194.047 319.168 192 320.137V304H32V448C32 456.824 39.1758 464 48 464H192V448H176V370.594C176 353.352 186.992 338.098 203.352 332.648L258.336 314.32L275.328 382.305L296.078 365.016L303.777 377.848L296.762 448H240V444.688L232.969 437.656C227.266 431.953 224 424.062 224 416C224 407.938 227.266 400.047 232.969 394.344L240 387.312V368H224V380.688L221.656 383.031C212.977 391.711 208 403.727 208 416C208 427.84 212.664 439.398 220.785 448H208ZM160 448H144V416H160V448ZM96 352V320H128V352H96ZM128 368V400H96V368H128ZM80 352H48V320H80V352ZM48 368H80V400H48V368ZM48 416H80V448H48V416ZM96 416H128V448H96V416ZM160 370.594V400H144V368H160.207C160.168 368.871 160 369.711 160 370.594ZM163.258 352H144V320H176V331.398C170.297 337.215 165.977 344.266 163.258 352ZM480 448H435.215C443.336 439.398 448 427.84 448 416C448 403.727 443.023 391.711 434.344 383.031L432 380.688V368H416V387.312L423.031 394.344C428.734 400.047 432 407.938 432 416C432 424.062 428.734 431.953 423.031 437.656L416 444.688V448H359.238L352.223 377.84L359.922 365.008L380.672 382.297L397.664 314.312L452.648 332.641C469.008 338.105 480 353.352 480 370.594V448Z" fill="white"/>
<path d="M32 224V288H192V224H32ZM176 272H48V240H176V272Z" fill="white"/>
</g>
<defs>
<clipPath id="clip0">
<rect width="496" height="496" fill="white"/>
</clipPath>
</defs>
</svg>
