<svg width="63" height="63" viewBox="0 0 63 63" fill="none" xmlns="http://www.w3.org/2000/svg">
<path d="M18.8199 48.8041C19.6585 47.5355 20.1483 46.0171 20.1483 44.3859C20.1483 39.9571 16.5438 36.354 12.1131 36.354C7.68243 36.354 4.07801 39.9571 4.07801 44.3859C4.07801 46.0172 4.56799 47.5356 5.40655 48.8044C2.21927 50.1247 0.000854492 53.2886 0.000854492 56.8481V61.7695C0.000854492 62.449 0.551735 62.9999 1.23132 62.9999H22.995C23.6746 62.9999 24.2255 62.449 24.2255 61.7695V56.8481C24.2255 53.2881 22.0071 50.1242 18.8199 48.8041ZM12.1131 38.8149C15.1867 38.8149 17.6874 41.314 17.6874 44.3859C17.6874 47.4596 15.1868 49.9603 12.1131 49.9603C9.03951 49.9603 6.53895 47.4596 6.53895 44.3859C6.53895 41.314 9.03951 38.8149 12.1131 38.8149ZM21.7645 60.539H2.46179V56.8481C2.46179 53.9663 4.4896 51.4457 7.25631 50.7816C8.60638 51.8094 10.2893 52.4212 12.1131 52.4212C13.9369 52.4212 15.6199 51.8094 16.97 50.7816C19.7367 51.4452 21.7645 53.9659 21.7645 56.8481V60.539Z" fill="white"/>
<path d="M57.5902 48.804C58.4286 47.5354 58.9185 46.0171 58.9185 44.3859C58.9185 39.9571 55.3139 36.354 50.8834 36.354C46.4547 36.354 42.8517 39.9571 42.8517 44.3859C42.8517 46.0168 43.3412 47.5349 44.1792 48.8034C40.9906 50.1231 38.7711 53.2876 38.7711 56.8481V61.7695C38.7711 62.449 39.322 62.9999 40.0016 62.9999H61.7688C62.4484 62.9999 62.9993 62.449 62.9993 61.7695V56.8481C62.9992 53.2881 60.7794 50.1239 57.5902 48.804ZM50.8834 38.8149C53.957 38.8149 56.4575 41.314 56.4575 44.3859C56.4575 47.4596 53.957 49.9603 50.8834 49.9603C47.8116 49.9603 45.3127 47.4596 45.3127 44.3859C45.3127 41.314 47.8116 38.8149 50.8834 38.8149ZM60.5382 60.539H41.2319V56.8481C41.2319 53.9658 43.2606 51.4447 46.0282 50.7812C47.3778 51.8092 49.0602 52.4212 50.8834 52.4212C52.7072 52.4212 54.3902 51.8093 55.7403 50.7815C58.5089 51.4453 60.5381 53.9661 60.5381 56.8481V60.539H60.5382Z" fill="white"/>
<path d="M50.9175 32.5137C51.1191 32.6427 51.3497 32.7078 51.581 32.7078C51.7801 32.7078 51.9796 32.6596 52.1613 32.5624C52.5541 32.3523 52.8026 31.9463 52.8112 31.501L52.8824 27.7879C56.1419 26.9887 58.5594 24.0085 58.5594 20.5673C58.5594 16.9667 55.9853 13.9568 52.5811 13.279C52.7562 12.4998 52.8463 11.7041 52.8463 10.8988C52.8462 4.88914 47.9572 0 41.9477 0H33.5526C32.873 0 32.3221 0.550881 32.3221 1.23047C32.3221 1.91006 32.873 2.46094 33.5526 2.46094H41.9477C46.6002 2.46094 50.3854 6.24623 50.3854 10.8989C50.3854 11.6586 50.2826 12.4076 50.0814 13.1354H33.2736C29.595 13.1354 26.5338 15.8226 25.9455 19.3368H22.6394C22.3612 19.3368 22.0912 19.4311 21.8734 19.6042L14.5857 25.4003L14.4909 20.5049C14.4787 19.876 13.9941 19.3575 13.3674 19.3029C9.04949 18.9267 5.66705 15.2352 5.66705 10.8986C5.66705 6.24623 9.4537 2.46094 14.1082 2.46094H22.5033C23.1829 2.46094 23.7338 1.91006 23.7338 1.23047C23.7338 0.550881 23.1829 0 22.5033 0H14.1082C8.09674 0 3.20612 4.88914 3.20612 10.8989C3.20612 13.6333 4.23282 16.2526 6.09722 18.2746C7.69462 20.0069 9.77793 21.1644 12.0507 21.6012L12.1734 27.9366C12.1825 28.4046 12.4563 28.8269 12.8798 29.0261C13.0468 29.1048 13.2256 29.1433 13.4035 29.1433C13.6768 29.1433 13.9477 29.0524 14.1696 28.8759L23.069 21.7979H25.9455C26.5338 25.3121 29.595 27.9993 33.2736 27.9993H43.8651L50.9175 32.5137ZM28.3028 20.5673C28.3028 17.8263 30.5327 15.5963 33.2736 15.5963H51.1276C53.8685 15.5963 56.0984 17.8263 56.0984 20.5673C56.0984 23.122 54.107 25.2968 51.5648 25.5184C50.938 25.5731 50.4534 26.0917 50.4415 26.7207L50.3929 29.2557L44.8886 25.7323C44.6906 25.6056 44.4604 25.5381 44.2253 25.5381H33.2736C30.5326 25.5383 28.3028 23.3083 28.3028 20.5673Z" fill="white"/>
<path d="M35.2197 19.335C34.5401 19.335 33.9893 19.8876 33.9893 20.5672C33.9893 21.2467 34.5401 21.7976 35.2197 21.7976C35.8993 21.7976 36.4502 21.2467 36.4502 20.5672V20.5637C36.4502 19.8841 35.8993 19.335 35.2197 19.335Z" fill="white"/>
<path d="M42.2023 19.335C41.5227 19.335 40.9718 19.8876 40.9718 20.5672C40.9718 21.2467 41.5227 21.7976 42.2023 21.7976C42.8819 21.7976 43.4327 21.2467 43.4327 20.5672V20.5637C43.4327 19.8841 42.8819 19.335 42.2023 19.335Z" fill="white"/>
<path d="M49.1813 21.7976C49.8609 21.7976 50.4118 21.2467 50.4118 20.5672V20.5637C50.4118 19.8841 49.8609 19.335 49.1813 19.335C48.5017 19.335 47.9509 19.8876 47.9509 20.5672C47.9509 21.2467 48.5017 21.7976 49.1813 21.7976Z" fill="white"/>
<path d="M28.0279 2.46094H28.0349C28.7145 2.46094 29.2619 1.91006 29.2619 1.23047C29.2619 0.550881 28.7076 0 28.028 0C27.3484 0 26.7975 0.550881 26.7975 1.23047C26.7975 1.91006 27.3483 2.46094 28.0279 2.46094Z" fill="white"/>
</svg>
