<svg width="49" height="21" viewBox="0 0 49 21" fill="none" xmlns="http://www.w3.org/2000/svg">
<path d="M46.8001 0H22.1001C20.6001 0 19.2001 1.2 18.9001 2.6L15.7001 17.9C15.4001 19.4 16.3001 20.5 17.8001 20.5H42.5001C44.0001 20.5 45.4001 19.3 45.7001 17.9L48.9001 2.6C49.2001 1.2 48.3001 0 46.8001 0ZM46.1001 1.8L45.7001 2.1L33.2001 10.9C32.5001 11.4 31.6001 11.4 31.1001 10.9L22.3001 2.1L22.0001 1.8H46.1001ZM20.6001 3L27.7001 10.2L17.9001 16L20.6001 3ZM42.9001 18.8H18.2001C17.8001 18.8 17.5001 18.5 17.5001 18.1L28.9001 11.4L29.7001 12.2C30.2001 12.7 30.9001 13 31.7001 13C32.5001 13 33.3001 12.7 34.0001 12.2L35.2001 11.4L43.8001 18.1C43.7001 18.5 43.3001 18.8 42.9001 18.8ZM44.4001 16L37.0001 10.2L47.1001 3L44.4001 16Z" fill="white"/>
<path d="M14.8001 3.5002H5.0001C4.5001 3.5002 4.1001 3.1002 4.1001 2.6002C4.1001 2.1002 4.5001 1.7002 5.0001 1.7002H14.8001C15.3001 1.7002 15.7001 2.1002 15.7001 2.6002C15.7001 3.1002 15.3001 3.5002 14.8001 3.5002Z" fill="white"/>
<path d="M13 10.4001H3.20005C2.70005 10.4001 2.30005 10.0001 2.30005 9.5001C2.30005 9.0001 2.70005 8.6001 3.20005 8.6001H13C13.5 8.6001 13.9 9.0001 13.9 9.5001C13.9 10.0001 13.5 10.4001 13 10.4001Z" fill="white"/>
<path d="M10.7 17.9001H0.9C0.4 17.9001 0 17.5001 0 17.0001C0 16.5001 0.4 16.1001 0.9 16.1001H10.7C11.2 16.1001 11.6 16.5001 11.6 17.0001C11.6 17.5001 11.2 17.9001 10.7 17.9001Z" fill="white"/>
</svg>
